<svg id="vector" xmlns="http://www.w3.org/2000/svg" width="60.0d" height="35.0d" viewBox="0 0 60.0 35.0"><path fill="@color/brand_red" d="M44 0c-6.039 13.116-20.202 26.572-31.613 30.007-11.436 3.441-15.725-4.48-9.587-17.66l3.962-1.19c-4.016 8.63-1.207 13.817 6.286 11.565 7.476-2.244 16.758-11.057 20.736-19.663" fill-rule="evenodd" id="path_0"/><path fill="@color/brand_red" d="M8.152 10.706c-2.122 4.649-0.64 7.44 3.317 6.23 3.96-1.208 8.873-5.954 10.98-10.593L8.152 10.706" fill-rule="evenodd" id="path_1"/><path fill="?textPrimaryBpost" d="M33.578 28.513c0-1.168-0.567-1.989-1.665-1.989-0.312 0-0.68 0.056-0.825 0.113v3.728c0.155 0.07 0.492 0.128 0.81 0.128 1.09 0 1.68-0.732 1.68-1.98zm1.771 0c0 1.999-1.224 3.192-3.473 3.192-1.048 0-2.028-0.205-2.543-0.45v-8.31h1.755v2.526c0.219-0.069 0.634-0.136 1.001-0.136 2.134 0 3.26 1.28 3.26 3.178zm23.597 3.204c-1.347 0-1.982-0.652-1.982-1.944v-3.146h-0.893v-1.166h0.893v-1.373l1.73-0.442v1.815H60v1.166h-1.306v3.044c0 0.503 0.352 0.675 0.804 0.675 0.184 0 0.38-0.047 0.502-0.093v1.296c-0.209 0.088-0.634 0.168-1.054 0.168zm-6.36 0.047c-0.875 0-1.735-0.204-2.254-0.447l0.57-1.187c0.343 0.191 1.125 0.4 1.626 0.4 0.64 0 1.046-0.264 1.046-0.677 0-0.455-0.45-0.652-1.073-0.848-0.88-0.283-1.985-0.65-1.985-1.863 0-1.087 0.93-1.815 2.551-1.815 0.896 0 1.617 0.19 2.146 0.444l-0.542 1.065c-0.292-0.164-0.92-0.356-1.384-0.356-0.615 0-0.984 0.275-0.984 0.64 0 0.47 0.457 0.654 1.063 0.85 0.915 0.295 2.04 0.638 2.04 1.883 0 1.157-0.97 1.911-2.82 1.911zM46.52 26.55c-0.928 0-1.388 0.743-1.388 1.98 0 1.232 0.46 1.964 1.388 1.964 0.937 0 1.396-0.732 1.396-1.964 0-1.237-0.459-1.98-1.396-1.98zm0 5.215c-2.02 0-3.146-1.383-3.146-3.227 0-1.84 1.126-3.21 3.146-3.21 2.025 0 3.149 1.37 3.149 3.21 0 1.844-1.124 3.227-3.149 3.227zm-7.475-5.225c-0.32 0-0.656 0.053-0.81 0.125v3.724c0.138 0.062 0.514 0.115 0.824 0.115 1.094 0 1.665-0.82 1.665-1.99 0-1.246-0.597-1.974-1.68-1.974zm0.194 5.154c-0.373 0-0.785-0.068-1.004-0.133v2.529h-1.76v-8.32c0.519-0.239 1.5-0.444 2.546-0.444 2.248 0 3.47 1.19 3.47 3.186 0 1.902-1.122 3.18-3.252 3.18z" fill-rule="evenodd" id="path_2"/></svg>