<svg id="vector" xmlns="http://www.w3.org/2000/svg" width="24.0d" height="24.0d" viewBox="0 0 24.0 24.0"><path fill="#ef2637ff" d="M21.753 6.49c0.195 0.195 0.195 0.512 0 0.707L9.025 19.925C8.95 20 8.85 20.05 8.742 20.066l-4.95 0.707c-0.33 0.047-0.612-0.235-0.565-0.566l0.707-4.95c0.016-0.107 0.065-0.206 0.141-0.282L16.803 2.247c0.195-0.195 0.512-0.195 0.707 0zm-3.889 3.182l-3.536-3.536-9.427 9.428-0.59 4.125 4.125-0.59 9.428-9.427zm2.828-2.829l-3.535-3.535-2.121 2.12 3.535 3.536 2.121-2.12z" fill-rule="evenodd" id="path_0"/></svg>