<svg id="vector" xmlns="http://www.w3.org/2000/svg" width="140.0d" height="141.0d" viewBox="0 0 140.0 141.0"><defs><clipPath id="clip_path_0"><path d="M140 70.07c0 8.593-1.55 16.823-4.383 24.43-1.448 3.885-3.229 7.608-5.31 11.13-1.788 3.025-3.798 5.906-6.008 8.617-1.713 2.105-3.548 4.108-5.49 5.994-0.995 0.971-2.02 1.91-3.071 2.82-1.789 1.546-3.657 3.001-5.597 4.362-0.236 0.168-0.477 0.333-0.716 0.494-2.049 1.401-4.178 2.696-6.375 3.874-2.359 1.265-4.797 2.402-7.308 3.392-5.98 2.368-12.363 3.933-19.018 4.568-2.212 0.212-4.456 0.319-6.724 0.319-0.62 0-1.241-0.007-1.857-0.024-21.154-0.55-39.97-10.487-52.44-25.799-2.21-2.71-4.22-5.592-6.008-8.617-2.08-3.522-3.864-7.245-5.31-11.13C1.55 86.894 0 78.664 0 70.07c0-38.66 31.339-70 70-70s70 31.34 70 70"/></clipPath></defs><path fill="#dbdbdbff" d="M140 70.07c0 8.593-1.55 16.823-4.383 24.43-1.448 3.885-3.229 7.608-5.31 11.13-1.788 3.025-3.798 5.906-6.008 8.617-1.713 2.105-3.548 4.108-5.49 5.994-0.995 0.971-2.02 1.91-3.071 2.82-1.789 1.546-3.657 3.001-5.597 4.362-0.236 0.168-0.477 0.333-0.716 0.494-2.049 1.401-4.178 2.696-6.375 3.874-2.359 1.265-4.797 2.402-7.308 3.392-5.98 2.368-12.363 3.933-19.018 4.568-2.212 0.212-4.456 0.319-6.724 0.319-0.62 0-1.241-0.007-1.857-0.024-21.154-0.55-39.97-10.487-52.44-25.799-2.21-2.71-4.22-5.592-6.008-8.617-2.08-3.522-3.864-7.245-5.31-11.13C1.55 86.894 0 78.664 0 70.07c0-38.66 31.339-70 70-70s70 31.34 70 70" fill-rule="evenodd" id="path_0"/><g id="g_0"><path fill="#ffffffff" d="M135.668 119.953H80.5c0.605-6.841 4.88-12.145 10.064-12.145 1.374 0 2.683 0.371 3.879 1.047 2.025-5.767 7.06-9.855 12.953-9.855 4.972 0 9.335 2.91 11.793 7.287 1.137-0.371 2.335-0.57 3.576-0.57 7.005 0 12.712 6.337 12.903 14.236M44 90.5h-77.5c0.85-9.632 6.855-17.1 14.139-17.1 1.928 0 3.768 0.524 5.447 1.475C-11.069 66.755-3.994 61 4.283 61c6.986 0 13.115 4.098 16.567 10.26 1.598-0.524 3.28-0.804 5.023-0.804 9.842 0 17.859 8.923 18.127 20.044" fill-rule="evenodd" clip-path="url(#clip_path_0)"/></g><path fill="#ec2a3dff" d="M101.613 87.38L16.141 48.307c-1.357-0.62-1.953-2.222-1.334-3.578 0.308-0.672 0.877-1.19 1.576-1.43L125.03 5.834c0.705-0.243 1.474 0.131 1.717 0.836 0.088 0.257 0.097 0.535 0.026 0.797L105.339 85.64c-0.394 1.438-1.88 2.284-3.317 1.89-0.14-0.039-0.277-0.088-0.409-0.149z" fill-rule="evenodd" id="path_1"/><path fill="#b6101fff" d="M57.135 94.731L42.4 60.35l84.375-54.675L66.7 71.15l-7.031 23.437c-0.214 0.715-0.967 1.12-1.681 0.906-0.383-0.115-0.696-0.394-0.853-0.762z" fill-rule="evenodd" id="path_2"/><path fill="#921421ff" d="M58.066 94.584L66.7 71.15l14.85 6.75-22.436 17.45c-0.294 0.229-0.718 0.176-0.947-0.118-0.143-0.184-0.181-0.43-0.1-0.648z" fill-rule="evenodd" id="path_3"/></svg>