<svg id="vector" xmlns="http://www.w3.org/2000/svg" width="@dimen/twenty_four_" height="@dimen/twenty_four_" viewBox="0 0 24.0 24.0"><path fill="@color/secondary_green" d="M8 1.5c0.276 0 0.5 0.224 0.5 0.5v1.837l-1 0.794V2.5h-3v4.514l-1 0.794V2c0-0.245 0.177-0.45 0.41-0.492L4 1.5z" fill-rule="evenodd" id="path_0"/><path fill="@color/secondary_blue" d="M11.678 0.617l-10 8.4C1.565 9.112 1.5 9.252 1.5 9.4V22c0 0.276 0.224 0.5 0.5 0.5h10l0.09-0.008C12.323 22.45 12.5 22.245 12.5 22v-7.5h5V22c0 0.276 0.224 0.5 0.5 0.5h4c0.276 0 0.5-0.224 0.5-0.5V9.4c0-0.148-0.065-0.288-0.178-0.383l-10-8.4c-0.186-0.156-0.458-0.156-0.644 0zM12 1.652l9.5 7.98V21.5h-3V14c0-0.276-0.224-0.5-0.5-0.5h-6l-0.09 0.008C11.677 13.55 11.5 13.755 11.5 14v7.5h-9V9.632l9.5-7.98z" fill-rule="evenodd" id="path_1"/></svg>