<svg id="vector" xmlns="http://www.w3.org/2000/svg" width="80.0d" height="80.0d" viewBox="0 0 80.0 80.0"><path fill="#4195b9ff" d="M35.5 7c11.075 0 20.857 5.54 26.725 14h-2.491C54.155 13.71 45.367 9 35.5 9 18.682 9 5 22.682 5 39.5 5 56.318 18.682 70 35.5 70c9.408 0 17.836-4.282 23.435-11h2.567c-5.93 7.894-15.37 13-26.002 13C17.55 72 3 57.45 3 39.5S17.55 7 35.5 7z" fill-rule="evenodd" id="path_0"/><path fill="#66a367ff" d="M39.417 39.559c0-1.32 0.891-1.259 1.996-1.259l31.011 0.001-7.293-7.294c-0.755-0.755-2.648-1.96-2.07-2.75l0.07-0.082c0.786-0.786 2.057-0.789 2.838-0.007l9.905 9.905c0.782 0.781 0.779 2.052-0.007 2.837l-9.955 9.956c-0.786 0.785-2.056 0.788-2.838 0.007-0.781-0.782 1.228-2.057 2.014-2.842l7.34-7.34H41.413c-1.06 0-1.924 0.173-1.992-0.98z" fill-rule="evenodd" id="path_1"/></svg>