<svg id="vector" xmlns="http://www.w3.org/2000/svg" width="80.0d" height="80.0d" viewBox="0 0 80.0 80.0"><path fill="#66a367ff" d="M29.369,23.691C29.369,18.168 33.846,13.691 39.369,13.691C44.892,13.691 49.369,18.169 49.369,23.691C49.369,29.214 44.892,33.691 39.369,33.691C33.846,33.691 29.369,29.214 29.369,23.691ZM31.369,23.691C31.369,28.11 34.951,31.691 39.369,31.691C43.787,31.691 47.369,28.109 47.369,23.691C47.369,19.273 43.788,15.691 39.369,15.691C34.951,15.691 31.369,19.273 31.369,23.691ZM20.905,58.999C19.853,58.999 19,58.143 19,57.086C19,45.993 27.954,36.999 39,36.999C50.045,36.999 59,45.993 59,57.086C59,58.143 58.147,58.999 57.095,58.999H20.905ZM57,56.999C55.945,46.864 48.288,38.999 39,38.999C29.712,38.999 22.055,46.864 21,56.999H57Z" fill-rule="evenodd" id="path_0"/><path fill="#4195b9ff" d="M40,1C18.461,1 1,18.461 1,40C1,61.539 18.461,79 40,79C61.539,79 79,61.539 79,40C79,18.461 61.539,1 40,1ZM40,3C60.402,3 77,19.598 77,40C77,60.402 60.402,77 40,77C19.598,77 3,60.402 3,40C3,19.598 19.598,3 40,3Z" fill-rule="evenodd" id="path_1"/></svg>