<svg id="vector" xmlns="http://www.w3.org/2000/svg" width="24.0d" height="24.0d" viewBox="0 0 24.0 24.0"><path fill="#dd1829ff" d="M12,5C13.933,5 15.5,6.567 15.5,8.5C15.5,10.433 13.933,12 12,12C10.067,12 8.5,10.433 8.5,8.5C8.5,6.567 10.067,5 12,5ZM12,6C10.619,6 9.5,7.119 9.5,8.5C9.5,9.881 10.619,11 12,11C13.381,11 14.5,9.881 14.5,8.5C14.5,7.119 13.381,6 12,6ZM12,13.5C8.629,13.5 5.563,15.271 3.857,18.106L3.675,18.409L3.9,18.682C5.883,21.083 8.826,22.5 12,22.5C15.175,22.5 18.118,21.082 20.1,18.68L20.325,18.407L20.143,18.104C18.435,15.27 15.37,13.5 12,13.5ZM12.3,14.505C14.998,14.6 17.447,15.96 18.965,18.126L19.094,18.317L18.916,18.512C17.139,20.4 14.66,21.5 12,21.5L11.682,21.495C9.143,21.411 6.79,20.325 5.084,18.513L4.906,18.318L5.035,18.127C6.608,15.88 9.184,14.5 12,14.5L12.3,14.505Z" fill-rule="evenodd" id="path_0"/><path fill="#dd1829ff" d="M12,1.5C6.201,1.5 1.5,6.201 1.5,12C1.5,17.799 6.201,22.5 12,22.5C17.799,22.5 22.5,17.799 22.5,12C22.5,6.201 17.799,1.5 12,1.5ZM12,2.5C17.247,2.5 21.5,6.753 21.5,12C21.5,17.247 17.247,21.5 12,21.5C6.753,21.5 2.5,17.247 2.5,12C2.5,6.753 6.753,2.5 12,2.5Z" fill-rule="evenodd" id="path_1"/></svg>