<svg id="vector" xmlns="http://www.w3.org/2000/svg" width="91.0d" height="90.0d" viewBox="0 0 91.0 90.0"><defs><clipPath id="clip_path_0"><path d="M67.497 33C66.522 33 66 32.768 66 32s0.522-1 1.497-1h15C83.47 31 84 31.232 84 32s-0.529 1-1.503 1h-5.495v47c0 0.982-0.367 2-1.344 2H64c-0.982 0-2.004-0.79-1.996-1.778V55.999H48.996l0.064 24.22C49.062 81.203 48.27 82 47.292 82H15.71c-0.977 0-1.711-1.018-1.711-2V33H8.5c-0.917 0-1.434-0.205-1.491-0.87L7.003 32c0-0.768 0.522-1 1.497-1h15c0.975 0 1.503 0.232 1.503 1s-0.528 1-1.503 1h-7.502L16 80h31V56c-0.001-0.983 1.018-1.997 1.996-1.997h13.008c0.982 0 2.004 1.009 1.996 1.996v24h11V33h-7.503z"/></clipPath><clipPath id="clip_path_1"><path d="M76.397 8c-6.56 14.335-21.677 28.957-33.942 32.971-12.264 3.727-16.828-4.874-10.267-19.209l4.278-1.433c-4.278 9.461-1.427 15.194 6.844 12.615 7.988-2.581 17.97-12.042 22.248-21.504L76.397 8zm-23.101 6.84c-2.291 4.606-7.16 9.5-11.455 10.94-4.296 1.438-5.728-1.728-3.437-6.334l14.892-4.605z"/></clipPath></defs><g id="g_0"><path fill="#4195b9ff" d="M2.003 26H89v61H2.003z" fill-rule="evenodd" clip-path="url(#clip_path_0)"/></g><g id="g_1"><path fill="#66a367ff" d="M24.192 3h57.205v43.841H24.192z" fill-rule="evenodd" clip-path="url(#clip_path_1)"/></g></svg>