<svg id="vector" xmlns="http://www.w3.org/2000/svg" width="99.0d" height="75.0d" viewBox="0 0 99.0 75.0"><defs><clipPath id="clip_path_0"><path d="M1 83.707h97.239v-85.73H1z"/></clipPath><clipPath id="clip_path_1"><path d="M1 83.707h97.239v-85.73H1z"/></clipPath><clipPath id="clip_path_2"><path d="M1 83.707h97.239v-85.73H1z"/></clipPath><clipPath id="clip_path_3"><path d="M55.54 22.894c-4.192 9.248-13.974 18.496-21.801 21.019-8.108 2.523-10.9-3.082-6.71-12.33l-4.19 1.4c-6.43 14.014-1.958 22.42 10.061 18.778 12.02-3.925 26.833-18.218 33.262-32.23L55.54 22.893zM28.93 30.72c-2.245 4.501-0.842 7.597 3.368 6.19s8.98-6.19 11.226-10.693L28.93 30.72z"/></clipPath><clipPath id="clip_path_4"><path d="M61.302 49.744c0 8.637 7.02 15.64 15.68 15.64s15.68-7.003 15.68-15.64c0-8.64-7.02-15.642-15.68-15.642s-15.681 7.003-15.681 15.642zm1.96 0c0-7.559 6.142-13.687 13.72-13.687 7.579 0 13.721 6.128 13.721 13.687 0 7.557-6.142 13.684-13.722 13.684-7.577 0-13.719-6.127-13.719-13.684zm20.043-6.484l-8.901 10.33-4.443-4.011c-0.369-0.402-1.015-0.448-1.442-0.102-0.43 0.347-0.477 0.954-0.109 1.357l5.244 4.885c0.418 0.457 1.172 0.445 1.573-0.024l9.673-11.23c0.354-0.413 0.284-1.019-0.156-1.352-0.19-0.143-0.416-0.213-0.641-0.213-0.299 0-0.595 0.123-0.798 0.36z"/></clipPath></defs><path fill="#4195b9ff" d="M77.528 12.543H8.536c-1.617 0-2.94 1.32-2.94 2.932v41.183c0 1.62 1.328 2.943 2.95 2.943h51.643c0.54 0 0.98-0.438 0.98-0.978s-0.44-0.977-0.98-0.977H8.536c-0.539 0-0.98-0.44-0.98-0.988V15.485c0-0.548 0.441-0.987 0.98-0.987h68.992c0.539 0 0.98 0.44 0.98 0.987v16.18c0 0.54 0.439 0.977 0.98 0.977 0.542 0 0.98-0.437 0.98-0.977v-16.18c0-1.623-1.323-2.942-2.94-2.942" fill-rule="evenodd" id="path_0"/><g id="g_0"><path fill="#4195b9ff" d="M30.032 58.726h1.96V13.454h-1.96z" fill-rule="evenodd" clip-path="url(#clip_path_0)"/></g><g id="g_1"><path fill="#4195b9ff" d="M6.913 29.504h72.576v-1.956H6.913zm53.041 14.027c0 0.54-0.438 0.977-0.98 0.977H6.914v-1.955h52.06c0.542 0 0.98 0.438 0.98 0.978" fill-rule="evenodd" clip-path="url(#clip_path_1)"/></g><g id="g_2"><path fill="#4195b9ff" d="M54.403 58.707h1.96V13.435h-1.96z" fill-rule="evenodd" clip-path="url(#clip_path_2)"/></g><g id="g_3"><path fill="#66a367ff" d="M15.002 57.498h56.061V14.643H15.002z" fill-rule="evenodd" clip-path="url(#clip_path_3)"/></g><g id="g_4"><path fill="#66a367ff" d="M55.684 70.271h41.16V29.215h-41.16z" fill-rule="evenodd" clip-path="url(#clip_path_4)"/></g></svg>