<svg id="vector" xmlns="http://www.w3.org/2000/svg" width="80.0d" height="80.0d" viewBox="0 0 80.0 80.0"><defs><clipPath id="clip_path_0"><path d="M34 44.889c0-1.992-1.002-1.992-2-1.992H19.998c-0.988 0-1.998 0-1.998 1.331v18.266c0 0.221-0.18 0.4-0.4 0.4H4.4c-0.22 0-0.4-0.179-0.4-0.4v-30.6l23.504-20.5L52 31.897v6.995c0 1 0.004 2 1 2s1-1 0.996-2v-6.995c0-0.472-0.24-0.74-0.597-1.048L28.5 9.393c-0.608-0.524-1.392-0.524-2 0l-24 21.498C2.143 31.199 2 31.606 2 32.078v30.816c0 0.896 1.114 2 2.009 2 0.597 0 5.26-0.05 13.991-0.147 0.895 0 1.998-0.957 1.998-1.853V45.29c0-0.221 0.179-0.4 0.4-0.4H31.6c0.22 0 0.4 0.179 0.4 0.4v17.605c0 0.896 1.105 2 2 2h10c1.005 0 1.998 0 1.998-1.005 0-1.004-0.993-0.995-2.036-0.995H34.5c-0.276 0-0.5-0.224-0.5-0.5V44.89z"/></clipPath><clipPath id="clip_path_1"><path d="M62 40c8.837 0 16 7.163 16 16s-7.163 16-16 16-16-7.164-16-16 7.163-16 16-16zm0 2c-7.733 0-14 6.268-14 14s6.268 14 14 14 14-6.268 14-14-6.268-14-14-14zm-0.663 8.568c0.367 0.354 0.427 0.897 0.16 1.263l-0.075 0.088-1.235 1.279h4.19c2.1 0.008 3.944 0.15 4.487 2.717l0.045 0.232c0.077 0.446 0.117 0.96 0.117 1.55 0 4.32-2.163 4.493-4.692 4.5h-8.328c-0.74 0-2.006-0.007-2.006-1.003 0-0.906 1.046-0.988 1.792-0.996h8.224l0.222-0.001c1.178-0.009 2.801-0.15 2.801-2.5 0-2.348-1.623-2.461-2.801-2.467h-0.222l-3.876-0.025 1.282 1.328c0.35 0.362 0.312 0.967-0.085 1.35-0.397 0.384-1.003 0.402-1.353 0.039l-2.9-3.003c-0.183-0.189-0.26-0.443-0.236-0.698-0.018-0.21 0.033-0.419 0.154-0.59l0.082-0.098 2.9-3.003c0.35-0.363 0.956-0.346 1.353 0.038z"/></clipPath></defs><g id="g_0"><path fill="#4195b9ff" d="M-3 4h61.996v65.893H-3z" fill-rule="evenodd" clip-path="url(#clip_path_0)"/></g><g id="g_1"><path fill="#66a367ff" d="M41 35h42v42H41z" fill-rule="evenodd" clip-path="url(#clip_path_1)"/></g></svg>