<svg id="vector" xmlns="http://www.w3.org/2000/svg" width="99.0d" height="75.0d" viewBox="0 0 99.0 75.0"><defs><clipPath id="clip_path_0"><path d="M1 83.704h97.239V-3H1z"/></clipPath><clipPath id="clip_path_1"><path d="M1 83.704h97.239V-3H1z"/></clipPath><clipPath id="clip_path_2"><path d="M1 83.704h97.239V-3H1z"/></clipPath></defs><path fill="none" d="M84.112 60.511H15.125c-1.084 0-1.963-0.886-1.963-1.98V16.883c0-1.094 0.88-1.98 1.963-1.98h68.987c1.084 0 1.963 0.886 1.963 1.98V58.53c0 1.094-0.879 1.98-1.963 1.98z" stroke="#4195b9ff" stroke-width="2.0" fill-rule="evenodd" id="path_0"/><g id="g_0"><path fill="#4195b9ff" d="M36.62 60.619h1.96V14.832h-1.96z" fill-rule="evenodd" clip-path="url(#clip_path_0)"/></g><g id="g_1"><path fill="#4195b9ff" d="M13.501 31.065h72.575v-1.977H13.501zm0 15.176h72.575v-1.977H13.501z" fill-rule="evenodd" clip-path="url(#clip_path_1)"/></g><g id="g_2"><path fill="#4195b9ff" d="M60.99 60.6h1.96V14.813h-1.96z" fill-rule="evenodd" clip-path="url(#clip_path_2)"/></g></svg>