<svg id="vector" xmlns="http://www.w3.org/2000/svg" width="80.0d" height="80.0d" viewBox="0 0 80.0 80.0"><defs><clipPath id="clip_path_0"><path d="M0 80h80V0H0z"/></clipPath><clipPath id="clip_path_1"><path d="M0 80h80V0H0z"/></clipPath></defs><path fill="#4194b8ff" d="M23.999 27.738C23.901 26.757 23.268 26 22.5 26c-0.768 0-1.401 0.757-1.499 1.738C20.987 27.88 21.103 28 21.241 28h2.518c0.137 0 0.254-0.12 0.24-0.262M37.24 65.996H9.005l-0.011-0.325c-0.251-10.676 8.81-20.67 20.01-20.67 0.936 0 2.048 0.005 3.063 0.15 0.853 0.12 2.192 0.457 2.466-0.329 0.273-0.786-0.6-1.445-1.452-1.566C31.921 43.092 30.705 43 29.615 43 15.942 43 7 53.21 7 66.47 7 67.314 7.699 68 8.56 68h28.559c0.844-0.002 1.88-0.045 1.88-0.998 0-0.908-0.94-0.997-1.758-1.006M31.5 26c-0.768 0-1.401 0.757-1.5 1.738C29.986 27.88 30.104 28 30.24 28h2.52c0.137 0 0.253-0.12 0.24-0.262C32.9 26.757 32.268 26 31.5 26m-2.256 6.338l-0.015 0.011-0.056 0.04c-0.105 0.072-0.236 0.148-0.394 0.22-0.476 0.22-1.059 0.354-1.756 0.354-0.69 0-1.276-0.143-1.763-0.377-0.273-0.13-0.44-0.25-0.496-0.303-0.416-0.389-1.075-0.376-1.474 0.03-0.399 0.405-0.385 1.05 0.03 1.44 0.202 0.19 0.541 0.43 1.02 0.66C25.104 34.781 26.003 35 27.023 35c1.013 0 1.897-0.204 2.645-0.549 0.472-0.217 0.805-0.447 1.004-0.63 0.42-0.385 0.44-1.03 0.045-1.44-0.395-0.409-1.054-0.428-1.473-0.043" fill-rule="evenodd" id="path_0"/><path fill="#4194b8ff" d="M38.976 28.873c-0.118 0.878-0.617 2.417-1.013 2.416-0.033-0.011-0.067-0.02-0.11-0.032-0.813-0.207-1.64 0.282-1.945 1.15C34.278 37.033 30.81 39 26.998 39c-3.767 0-7.199-1.89-8.854-6.425-0.323-0.885-1.187-1.36-2.01-1.107-0.038 0.012-0.07 0.022-0.105 0.035-0.384 0.008-0.886-1.532-1.005-2.419-0.122-0.908 0.236-1.599 0.62-1.693l0.078-0.011c0.815-0.14 1.42-0.917 1.432-1.837 0.005-0.375 0.06-1.412 0.101-2.026l5.415 1.023c1.4 0.26 2.81 0.39 4.21 0.39 1.38 0 2.75-0.12 4.11-0.38l5.792-1.062c0.025 0.591 0.047 1.555 0.054 1.865 0.022 0.903 0.613 1.661 1.41 1.81l0.083 0.012c0.4 0.082 0.77 0.781 0.647 1.698zM12.85 13.63c-0.19-0.3-0.23-0.68-0.13-1.04 0.06-0.19 0.21-0.52 0.53-0.67l10.83-4.38c1.79-0.8 3.84-0.8 5.7 0.01l10.57 4.23c0.28 0.12 0.49 0.36 0.59 0.68 0.11 0.35 0.07 0.73-0.06 0.96l-2.83 4.32v0.01l-0.91 1.27-0.1 0.72-0.25 1.71-6.16 1.14c-2.52 0.46-5.07 0.45-7.59-0.02l-5.96-1.13-0.38-1.7-0.21-0.92-0.81-1.08-2.83-4.11zm29.7 0.88c0.47-0.8 0.58-1.77 0.29-2.66-0.27-0.86-0.88-1.55-1.74-1.92L30.52 5.7c-2.3-1.02-4.95-1.01-7.19-0.01l-10.84 4.38c-0.8 0.36-1.41 1.06-1.68 1.94-0.28 0.91-0.15 1.89 0.4 2.75l3.42 4.92 0.73 3.226c-0.012 0.042-0.03 0.08-0.04 0.124-0.149 0.703-0.252 1.426-0.308 2.164-1.436 0.849-2.235 2.721-1.957 4.654 0.295 2.052 1.732 3.67 3.492 3.906C18.655 38.158 22.59 41 26.997 41c4.474 0 8.458-2.93 10.54-7.441 1.723-0.281 3.12-1.874 3.408-3.89 0.28-1.936-0.527-3.811-1.978-4.66-0.059-0.667-0.155-1.32-0.287-1.955-0.015-0.072-0.043-0.136-0.066-0.202l0.436-3.072 3.5-5.27z" fill-rule="evenodd" id="path_1"/><g id="g_0"><path fill="#4194b8ff" d="M15.18 19.74h22.87v-2H15.18z" fill-rule="evenodd" clip-path="url(#clip_path_0)"/></g><g id="g_1"><path fill="#66a267ff" d="M56.025 67.174v-16.35l5.84-2.6 0.011 2.34v0.01c0 0.12 0.05 1.24 1 1.24 1 0 1-1.25 1-1.25l-0.01-2.9v-0.01c0-0.03-0.01-0.15-0.04-0.31l6.09-2.71 0.022 15.793-13.913 6.747zM54.99 49.04c-7.07-2.88-11.89-4.83-14.46-5.88l6.29-2.59 13.56 6.07-5.39 2.4zM54 67.24c-8.12-3.6-13.12-5.82-15-6.64V44.66l15 6.03v16.55zm1.44-30.21l13.29 5.91-5.89 2.61-13.47-6.03 6.07-2.49zm15.671 25.003c0.482-0.232 0.79-0.72 0.79-1.254v-1.31h-0.012l-0.01-16.33v-0.01c0-0.06-0.009-0.38-0.149-0.68 0-0.008-0.01-0.02-0.01-0.03-0.07-0.14-0.16-0.268-0.3-0.37-0.21-0.188-0.43-0.29-0.43-0.29l-14.85-6.61h-0.01c-0.04-0.02-0.18-0.08-0.38-0.11-0.45-0.13-0.96 0.09-0.96 0.09l-16.85 6.93-0.01 0.01c-0.05 0.02-0.3 0.14-0.51 0.34-0.39 0.33-0.42 0.97-0.42 1.06v17.6c0 0.332 0.1 0.61 0.31 0.84l0.02 0.02 0.08 0.08c0.05 0.04 0.09 0.08 0.14 0.11l17.19 7.31c0.46 0.23 1.03-0.01 1.03-0.01l15.341-7.386zM29.43 13.204c0 1.342-1.088 2.429-2.43 2.429s-2.429-1.087-2.429-2.43c0-1.341 1.087-2.428 2.43-2.428 1.341 0 2.428 1.087 2.428 2.429" fill-rule="evenodd" clip-path="url(#clip_path_1)"/></g></svg>