<svg id="vector" xmlns="http://www.w3.org/2000/svg" width="80.0d" height="80.0d" viewBox="0 0 80.0 80.0"><defs><clipPath id="clip_path_0"><path d="M63 42c8.837 0 16 7.163 16 16s-7.163 16-16 16-16-7.164-16-16 7.163-16 16-16zm0 2c-7.733 0-14 6.268-14 14s6.268 14 14 14 14-6.268 14-14-6.268-14-14-14zm-0.663 8.568c0.367 0.354 0.427 0.897 0.16 1.263l-0.075 0.088-1.235 1.279h4.19c2.1 0.008 3.944 0.15 4.487 2.717l0.045 0.232c0.077 0.446 0.117 0.96 0.117 1.55 0 4.32-2.163 4.493-4.692 4.5h-8.328c-0.74 0-2.006-0.007-2.006-1.003 0-0.906 1.046-0.988 1.792-0.996h8.224l0.222-0.001c1.178-0.009 2.801-0.15 2.801-2.5 0-2.348-1.623-2.461-2.801-2.467h-0.222l-3.876-0.025 1.282 1.328c0.35 0.362 0.312 0.967-0.085 1.35-0.397 0.384-1.003 0.402-1.353 0.039l-2.9-3.003c-0.183-0.189-0.26-0.443-0.236-0.698-0.018-0.21 0.033-0.419 0.154-0.59l0.082-0.098 2.9-3.003c0.35-0.363 0.956-0.346 1.353 0.038z"/></clipPath><clipPath id="clip_path_1"><path d="M72 11c0 2.997-0.927 3.748-2.379 3.937l4.09 13.959c1.092 3.728-1 7.662-4.705 8.785-0.123 0.038-0.244 0.071-0.365 0.1-0.55 0.135-1.098 0.206-1.641 0.217v1.67C67 40.402 67 41 66 41c-0.947 0-0.997-0.536-1-1.218V37.77c-2.392-0.607-4.423-2.374-5.308-4.833-0.785 2.579-3.016 4.604-5.887 4.995-0.123 0.017-0.254 0.031-0.394 0.043-3.491 0.275-6.633-1.762-7.885-4.835C44.37 35.965 41.22 38 37.5 38s-6.87-2.035-8.026-4.86c-1.08 2.653-3.569 4.533-6.475 4.821L23 37.998v28.996l22.127 0.001c0.835 0.002 1.778 0.041 1.866 0.87L47 67.995c0 0.91-0.904 0.996-1.747 1.004l-23.048 0.002c-0.063 0.02-0.132 0.029-0.205 0.029-0.073 0-0.142-0.01-0.205-0.029L12.003 69c-3.064 0-4.907-0.854-5-3.766L7 65V37.91l-0.157-0.026c-0.16-0.029-0.322-0.063-0.484-0.102-0.12-0.03-0.242-0.063-0.365-0.1-3.629-1.1-5.709-4.896-4.768-8.553l0.064-0.233 4.09-13.96C3.927 14.749 3 13.997 3 11c0-3.475 1.436-3.931 3.351-3.991C6.591 7.002 6.668 7 6.865 7h61.137C70.35 7 72 7 72 11zM15.307 32.937l-0.008 0.023c-0.983 2.707-3.358 4.571-6.071 4.963L9 37.953V65c0 1.266 1.535 1.94 2.84 1.992l0.163 0.003H21V37.997l0.002-0.095c-2.779-0.453-4.928-2.445-5.696-4.966zM42.974 15H32.026l-0.02 0.22L32 15.44l-1.499 15.557C30.501 33.57 34.48 36 37.5 36c2.953 0 6.82-2.322 6.994-4.828l0.006-0.175L43 15.44c0-0.147-0.009-0.294-0.026-0.44zm-12.451 0h-9.534l-4.43 14.97c-0.389 2.475 2.372 5.659 5.18 5.988 0.086 0.01 0.18 0.019 0.275 0.026 3.068 0.209 5.822-1.65 6.362-4.296l0.038-0.21 2.073-16.168c0.016-0.104 0.028-0.207 0.036-0.311zm23.487 0h-9.534c0.008 0.104 0.02 0.207 0.036 0.311l2.073 16.166c0.433 2.758 3.251 4.721 6.4 4.507 0.095-0.007 0.19-0.016 0.275-0.026 2.808-0.33 5.569-3.513 5.18-5.988L54.01 15zM19 15H7.397L3.115 29.475c-0.779 2.35 0.793 5.64 3.356 6.327 0.088 0.023 0.167 0.043 0.242 0.059 2.797 0.606 5.953-0.897 6.911-3.373l0.073-0.203 5.11-16.321c0.106-0.317 0.17-0.64 0.193-0.964zm48.603 0H56c0.023 0.324 0.087 0.647 0.193 0.964l5.11 16.32c0.86 2.597 4.112 4.199 6.984 3.577 0.075-0.016 0.154-0.036 0.242-0.06 2.563-0.686 4.135-3.976 3.356-6.326L67.603 15zm0.413-6H7.046C6.477 9 5 9 5 11c0 1.862 1.28 1.99 1.916 2h61.168C68.72 12.99 70 12.861 70 11c0-1.931-1.377-1.998-1.984-2z"/></clipPath></defs><g id="g_0"><path fill="#66a367ff" d="M42 37h42v42H42z" fill-rule="evenodd" clip-path="url(#clip_path_0)"/></g><g id="g_1"><path fill="#4195b9ff" d="M-4 2h83v72.03H-4z" fill-rule="evenodd" clip-path="url(#clip_path_1)"/></g></svg>