<svg id="vector" xmlns="http://www.w3.org/2000/svg" width="99.0d" height="87.0d" viewBox="0 0 99.0 87.0"><defs><clipPath id="clip_path_0"><path d="M62.798 66.644c0 8.837 7.163 16 15.999 16 8.837 0 16.001-7.163 16.001-16s-7.164-16-16.001-16c-8.836 0-15.999 7.164-15.999 16zm2 0c0-7.732 6.267-14.001 13.999-14.001s14.001 6.269 14.001 14.001c0 7.732-6.269 13.999-14.001 13.999-7.732 0-13.999-6.267-13.999-13.999zm11.983-5.47l-2.9 3.003-0.082 0.097c-0.12 0.172-0.171 0.382-0.153 0.591-0.024 0.254 0.054 0.509 0.235 0.698l2.9 3.002c0.35 0.364 0.956 0.346 1.354-0.037 0.398-0.385 0.435-0.989 0.084-1.351l-1.281-1.328 3.875 0.025h0.222c1.178 0.005 2.802 0.119 2.802 2.467s-1.624 2.491-2.802 2.5h-0.222l-8.223 0.001c-0.746 0.008-1.792 0.09-1.792 0.996 0 0.996 1.265 1.003 2.006 1.003h8.328c2.528-0.007 4.692-0.18 4.692-4.5 0-0.591-0.041-1.103-0.117-1.549l-0.045-0.234c-0.544-2.566-2.387-2.709-4.486-2.716l-4.192-0.001 1.235-1.279 0.075-0.087c0.267-0.366 0.207-0.91-0.159-1.263-0.207-0.199-0.469-0.299-0.722-0.299-0.236 0-0.463 0.086-0.632 0.261z"/></clipPath></defs><path fill="#4195b9ff" d="M54.654 30.475c-2.1-10.84-5.73-18.9-7.47-22.33 0.18 0.03 0.36 0.05 0.53 0.08 0.03 0.01 0.07 0.01 0.1 0.02 0.53 0.09 1.04 0.2 1.56 0.31l0.68 0.15 0.11 0.03c0.56 0.13 1.12 0.28 1.67 0.45 10.7 3.14 19.37 11.06 23.53 21.29h-20.71zm-0.95 25.4h-21.76c-1.01-8.56-0.49-16.51 0.71-23.4h20.35c1.2 6.89 1.72 14.84 0.7 23.4zm-7.2 24.5c-0.03 0.06-0.03 0.12-0.05 0.18-0.17 0.01-0.35 0.03-0.53 0.04v0.01l-1.06 0.03c-0.26 0.01-0.53 0.01-0.79 0.01-1.53 0-3.04-0.09-4.52-0.28l-0.44-0.06c-3.74-7.7-5.86-15.26-6.89-22.43h21.21c-1.04 7.2-3.17 14.78-6.93 22.5zm-10.76-0.69c-0.18-0.04-0.36-0.08-0.53-0.14-0.28-0.06-0.55-0.13-0.82-0.21-0.36-0.09-0.72-0.2-1.07-0.31-10.47-3.24-18.94-11.08-23.04-21.15h19.9c0.99 7.04 3.02 14.46 6.52 22.01-0.32-0.06-0.64-0.12-0.96-0.2zm-26.96-49.21c4.52-11.12 13.37-19.52 25.36-22 0.53-0.12 1.06-0.21 1.6-0.29 0.02-0.01 0.03-0.01 0.05-0.01 0.24-0.05 0.49-0.09 0.74-0.12 0.51-0.07 1.03-0.13 1.55-0.18h0.02c0.17-0.02 0.34-0.02 0.51-0.03-1.66 3.24-5.46 11.45-7.62 22.63H8.784zm32.16-22.76c0.21-0.01 0.42-0.01 0.63-0.01 1.08 0 2.15 0.06 3.21 0.16 1.15 2.11 5.45 10.55 7.84 22.61h-19.59c2.45-12.39 6.92-20.96 7.91-22.76zM60.94 77.223c-0.3-0.32-0.769-0.397-1.16-0.202-2.408 1.197-4.998 2.13-7.765 2.744-0.59 0.14-1.17 0.25-1.77 0.35-0.19 0.04-0.39 0.07-0.59 0.1-0.08 0.01-0.17 0.03-0.25 0.04-0.22 0.04-0.45 0.06-0.67 0.09 3.63-7.71 5.72-15.28 6.73-22.47h5.81c0.544 0 0.988-0.435 1-0.98 0.011-0.56-0.44-1.02-1-1.02h-5.56c0.98-8.54 0.48-16.48-0.7-23.4h21.1c1.15 3.38 1.81 6.98 1.91 10.72 0.02 0.54 0.45 0.98 1 0.98 0.56 0 1.02-0.46 1-1.02-0.09-3.72-0.73-7.3-1.81-10.68l-0.7-2c-4.48-11.72-14.52-20.7-26.88-23.7-0.5-0.12-1-0.23-1.5-0.32l-0.14-0.03c-0.31-0.07-0.63-0.12-0.95-0.17-0.44-0.08-0.89-0.14-1.34-0.2-0.05-0.01-0.11-0.01-0.16-0.02-0.25-0.03-0.5-0.07-0.76-0.09-0.22-0.11-0.47-0.13-0.71-0.06-1.15-0.11-2.32-0.18-3.5-0.18-0.48 0-0.95 0.01-1.42 0.03-0.3 0.01-0.6 0.02-0.9 0.05-0.06 0-0.11 0.01-0.17 0.01-0.41 0.02-0.83 0.06-1.24 0.1-0.32 0.03-0.64 0.06-0.95 0.1-0.06 0.01-0.11 0.01-0.17 0.02-0.47 0.05-0.93 0.12-1.39 0.2-13.55 2.22-23.73 11.54-28.6 24.01-0.06 0.16-0.1 0.35-0.11 0.53v0.09c0 0.89 0.72 1.63 1.63 1.63h22.38c-1.18 6.92-1.68 14.86-0.7 23.4h-20.4c-1.15-3.38-1.81-6.98-1.91-10.72-0.02-0.54-0.45-0.98-1-0.98-0.56 0-1.02 0.46-1 1.02 0.09 3.71 0.73 7.3 1.81 10.68l0.7 2c4.4 11.51 14.19 20.4 26.27 23.53 0.54 0.14 1.09 0.28 1.64 0.39 0.29 0.07 0.58 0.12 0.87 0.18 0.5 0.09 1 0.18 1.5 0.25 0.05 0.01 0.09 0.02 0.14 0.02 0.06 0.01 0.12 0.01 0.17 0.02 1.12 0.17 2.25 0.27 3.4 0.32h0.01c0.39 0.03 0.79 0.05 1.19 0.04h0.02c0.24 0.02 0.48 0.02 0.73 0.02 0.396 0 0.793-0.011 1.19-0.022 0.456-0.011 0.911-0.033 1.368-0.066l0.462-0.032c0.47-0.04 0.93-0.08 1.39-0.13 0.31-0.04 0.61-0.08 0.92-0.13 0.51-0.06 1.02-0.15 1.53-0.24 3.494-0.628 6.754-1.734 9.745-3.24 0.586-0.296 0.71-1.083 0.26-1.562z" fill-rule="evenodd" id="path_0"/><g id="g_0"><path fill="#66a367ff" d="M24.706 87.644h75.092v-51.68H24.706z" fill-rule="evenodd" clip-path="url(#clip_path_0)"/></g></svg>