<svg id="vector" xmlns="http://www.w3.org/2000/svg" width="80.0d" height="80.0d" viewBox="0 0 80.0 80.0"><defs><clipPath id="clip_path_0"><path d="M63.472 22c0.44 0 0.813 0.284 0.947 0.678l9.15 13.677 0.024 0.039c0.271 0.45 0.125 1.036-0.326 1.307l-0.002 0.001c-0.117 0.085-0.259 0.138-0.414 0.15l-7.38 0.546V43c0 0.552-0.447 1-1 1-0.552 0-1-0.448-1-1v-4.453l-18.469 1.37-0.036 0.002h-0.037c-0.23 0-0.443-0.08-0.61-0.212-0.135-0.073-0.255-0.175-0.352-0.304l-0.408-0.545-9.088-12.124v48.167l11.761-1.813c0.468-0.072 0.906 0.25 0.978 0.717 0.007 0.044 0.01 0.087 0.01 0.131 0 0.575-0.42 1.065-0.988 1.152l-12.59 1.941c-0.18 0.028-0.356-0.002-0.508-0.077l-0.068-0.038-21.918-7.769c-0.4-0.142-0.653-0.519-0.653-0.924-0.015-0.071-0.023-0.145-0.023-0.221L10.47 38.375l-7.707-1.123c-0.487-0.07-0.825-0.523-0.754-1.01 0.01-0.067 0.028-0.133 0.053-0.197l0.015-0.033c0.023-0.076 0.055-0.15 0.098-0.222l0.012-0.02 8.4-13.238 0.007-0.011C10.764 22.21 11.093 22 11.472 22h52zM32.47 27.06l-7.007 10.666-1.327 2.021c-0.165 0.252-0.422 0.409-0.698 0.455l-0.119 0.013-0.078 0.001-0.052 0.002c-0.042 0-0.083-0.003-0.125-0.009L12.47 38.666v28.955l20 6.928V27.06zM31.849 24H12.258l-7.41 11.369 17.923 2.784L31.849 24zm31.044-0.001L35.176 24l10.085 13.778 25.566-1.925-7.934-11.854z"/></clipPath><clipPath id="clip_path_1"><path d="M62.471 47c8.837 0 16 7.163 16 16s-7.163 16-16 16c-8.836 0-16-7.164-16-16s7.164-16 16-16zm0 2c-7.732 0-14 6.268-14 14s6.268 14 14 14c7.733 0 14-6.268 14-14s-6.267-14-14-14zm-0.662 8.568c0.366 0.354 0.427 0.897 0.159 1.263l-0.074 0.088-1.235 1.279h4.19c2.1 0.008 3.944 0.15 4.487 2.717l0.045 0.232c0.076 0.446 0.117 0.96 0.117 1.55 0 4.32-2.163 4.493-4.692 4.5h-8.329c-0.74 0-2.005-0.007-2.005-1.003 0-0.906 1.046-0.988 1.792-0.996h8.224l0.221-0.001c1.178-0.009 2.802-0.151 2.802-2.5 0-2.348-1.624-2.461-2.802-2.467h-0.221l-3.876-0.025 1.282 1.328c0.35 0.362 0.312 0.967-0.085 1.35-0.398 0.384-1.004 0.402-1.354 0.039l-2.9-3.003c-0.182-0.189-0.259-0.443-0.235-0.698-0.018-0.21 0.032-0.419 0.154-0.59l0.081-0.098 2.9-3.003c0.35-0.363 0.956-0.346 1.354 0.038zM41.614 1c0.995 0 0.995 0.95 0.995 2.002V10h5.393c0.36 0 1.794 0.799 0.61 1.998l-10 8c-0.732 0.74-1.273 0.74-2.005 0l-8.998-8C26.425 10.798 27.66 10 27.995 10h4.606l0.008-6.998C32.61 1.95 32.601 1 33.611 1c1.009 0 0.999 0.95 0.999 2.002v7.556c-0.004 1.44-0.071 1.44-1 1.44h-3.003l7.003 6.408 8.02-6.408h-4.015c-0.894 0-0.986-0.706-0.994-1.576V2.718C40.628 1.785 40.71 1 41.614 1z"/></clipPath></defs><g id="g_0"><path fill="#4195b9ff" d="M-3 17h81.73v65.039H-3z" fill-rule="evenodd" clip-path="url(#clip_path_0)"/></g><g id="g_1"><path fill="#66a367ff" d="M22.106-4h61.366v88H22.106z" fill-rule="evenodd" clip-path="url(#clip_path_1)"/></g></svg>