<svg id="vector" xmlns="http://www.w3.org/2000/svg" width="80.0d" height="80.0d" viewBox="0 0 80.0 80.0"><path fill="#66a367ff" d="M49 65.018l0.15 0.01C50 65.146 50 66.265 50 66.265v4.753h4.751c0.12 0.003 1.249 0.053 1.249 1 0 0.948-1.13 0.997-1.249 1h-5.539l-0.094-0.006c-0.038 0.004-0.077 0.006-0.118 0.006-0.32 0-0.538-0.129-0.686-0.304C48.134 72.566 48 72.346 48 72.018l0.008-0.124c-0.006-0.061-0.007-0.106-0.008-0.125v-5.514c0.003-0.117 0.053-1.237 1-1.237zm29 0c0.947 0 0.997 1.12 1 1.237v5.514c0 0.02-0.002 0.064-0.008 0.125L79 72.018c0 0.328-0.134 0.548-0.314 0.696-0.148 0.175-0.366 0.304-0.686 0.304-0.041 0-0.08-0.002-0.118-0.006-0.04 0.003-0.072 0.005-0.094 0.005l-5.54 0.001c-0.118-0.003-1.248-0.052-1.248-1 0-0.947 1.13-0.997 1.249-1H77v-4.753s0-1.119 0.85-1.237l0.15-0.01zm-22-14c1 0 1 1.26 1 1.26V63.78c-0.003 0.118-0.053 1.237-1 1.237-1 0-1-1.247-1-1.247V52.277s0-1.259 1-1.259zm5 0c1 0 1 1.26 1 1.26V63.78c-0.003 0.118-0.053 1.237-1 1.237-1 0-1-1.247-1-1.247V52.277s0-1.259 1-1.259zm5 0c1 0 1 1.26 1 1.26V63.78c-0.003 0.118-0.053 1.237-1 1.237-1 0-1-1.247-1-1.247V52.277s0-1.259 1-1.259zm5 0c1 0 1 1.26 1 1.26V63.78c-0.003 0.118-0.053 1.237-1 1.237-1 0-1-1.247-1-1.247V52.277s0-1.259 1-1.259zm-16.249-8c0.119 0.003 1.249 0.053 1.249 1 0 0.948-1.13 0.998-1.249 1H50v4.753s0 1.12-0.85 1.237L49 51.018c-0.947 0-0.997-1.119-1-1.237v-5.514c0-0.019 0.002-0.063 0.008-0.125L48 44.018c0-0.327 0.134-0.548 0.314-0.696 0.148-0.175 0.366-0.304 0.686-0.304 0.04 0 0.08 0.003 0.118 0.007 0.04-0.004 0.072-0.005 0.094-0.006h5.54zm23.037 0.001c0.022 0 0.054 0.002 0.094 0.006 0.038-0.004 0.077-0.007 0.118-0.007 0.32 0 0.537 0.13 0.686 0.304C78.866 43.47 79 43.691 79 44.018l-0.009 0.124c0.007 0.062 0.008 0.106 0.009 0.125v5.514c-0.003 0.118-0.053 1.237-1 1.237l-0.15-0.01C77 50.89 77 49.771 77 49.771v-4.753h-4.751c-0.12-0.002-1.249-0.052-1.249-1 0-0.947 1.13-0.997 1.249-1z" fill-rule="evenodd" id="path_0"/><path fill="#4195b9ff" d="M36.177 6.131s0.634-0.27 1.123-0.036c0.11 0.034 0.177 0.064 0.177 0.064l32.09 14.203s0.261 0.116 0.489 0.338c0.444 0.347 0.444 1.077 0.444 1.077v14.504c-0.003 0.118-0.053 1.237-1 1.237-1 0-1-1.247-1-1.247l-0.001-13.276L55 28.667v9.104s0 1.12-0.85 1.237L54 39.018c-1 0-1-1.247-1-1.247v-8.263l-15 6.303v35.777l5.124-1.982s0.806-0.36 1.221 0.393l0.062 0.128c0.391 0.92-0.68 1.375-0.68 1.375l-6.166 2.4s-0.143 0.061-0.344 0.093c-0.065 0.016-0.138 0.023-0.217 0.023-0.078 0-0.15-0.007-0.217-0.021l-0.059-0.015-0.012-0.003 0.012 0.003c-0.072-0.017-0.144-0.044-0.213-0.082L3.665 59.963c-0.032-0.012-0.063-0.025-0.093-0.04l-0.03-0.015-0.012-0.01C3 59.586 3 58.77 3 58.77V21.267c0.002-0.087 0.03-0.722 0.42-1.051 0.239-0.233 0.52-0.352 0.52-0.352zM4.999 22.498L5 58.428l31 13.164V35.57L4.998 22.498zm16.103-7.771l-14.651 6.24c4.182 1.77 14.5 6.15 30.954 13.138l-0.252-0.107 14.073-5.905-29.873-13.222s-0.11-0.05-0.25-0.144zm15.691-6.685L23.582 13.67l30.18 13.359 13.308-5.584L36.793 8.042z" fill-rule="evenodd" id="path_1"/></svg>