<svg id="vector" xmlns="http://www.w3.org/2000/svg" width="80.0d" height="80.0d" viewBox="0 0 80.0 80.0"><defs><clipPath id="clip_path_0"><path d="M62 40c8.837 0 16 7.163 16 16s-7.163 16-16 16-16-7.164-16-16 7.163-16 16-16zm0 2c-7.733 0-14 6.268-14 14s6.268 14 14 14 14-6.268 14-14-6.268-14-14-14zm6.452 7.367c0.362-0.423 1.019-0.49 1.468-0.15 0.45 0.341 0.52 0.96 0.158 1.383L60.21 62.09c-0.41 0.478-1.179 0.49-1.604 0.024l-5.352-5c-0.376-0.411-0.327-1.032 0.11-1.386 0.437-0.354 1.096-0.308 1.472 0.104l4.534 4.103 9.083-10.568z"/></clipPath><clipPath id="clip_path_1"><path d="M36.177 6.131s0.634-0.27 1.123-0.036c0.11 0.034 0.177 0.064 0.177 0.064l32.09 14.203s0.261 0.116 0.489 0.338c0.444 0.347 0.444 1.077 0.444 1.077v14.504c-0.003 0.118-0.053 1.237-1 1.237-1 0-1-1.247-1-1.247l-0.001-13.276L55 28.667v9.104s0 1.12-0.85 1.237L54 39.018c-1 0-1-1.247-1-1.247v-8.263l-15 6.303v35.777l5.124-1.982s0.806-0.36 1.221 0.393l0.062 0.128c0.391 0.92-0.68 1.375-0.68 1.375l-6.166 2.4s-0.143 0.061-0.344 0.093c-0.065 0.016-0.138 0.023-0.217 0.023-0.078 0-0.15-0.007-0.217-0.021l-0.059-0.015-0.012-0.003 0.012 0.003c-0.072-0.017-0.144-0.044-0.213-0.082L3.665 59.963c-0.032-0.012-0.063-0.025-0.093-0.04l-0.03-0.015-0.012-0.01C3 59.586 3 58.77 3 58.77V21.267c0.002-0.087 0.03-0.722 0.42-1.051 0.239-0.233 0.52-0.352 0.52-0.352L36.178 6.13zM4.999 22.498L5 58.428l31 13.164V35.57L4.998 22.498zm16.103-7.771l-14.651 6.24c4.182 1.77 14.5 6.15 30.954 13.138l-0.252-0.107 14.073-5.905-29.873-13.222s-0.11-0.05-0.25-0.144zm15.691-6.685L23.582 13.67l30.18 13.359 13.308-5.584L36.793 8.042z"/></clipPath></defs><g id="g_0"><path fill="#66a367ff" d="M41 35h42v42H41z" fill-rule="evenodd" clip-path="url(#clip_path_0)"/></g><g id="g_1"><path fill="#4195b9ff" d="M-2 1h77.5v78.018H-2z" fill-rule="evenodd" clip-path="url(#clip_path_1)"/></g></svg>