<svg id="vector" xmlns="http://www.w3.org/2000/svg" width="80.0d" height="80.0d" viewBox="0 0 80.0 80.0"><defs><clipPath id="clip_path_0"><path d="M52.9657,28.2966C48.7727,38.3637 38.9898,48.4308 31.1628,51.1758C23.0558,53.9209 20.2628,47.8212 24.4548,37.7541L20.2627,39.2791C13.8327,54.5315 18.3057,63.6821 30.3247,59.718C42.3448,55.4469 57.1577,39.8886 63.5877,24.6372L52.9657,28.2966ZM26.3547,36.8148C24.1087,41.7161 25.5127,45.0849 29.7227,43.5523C33.9317,42.022 38.7028,36.8148 40.9478,31.9157L26.3547,36.8148Z"/></clipPath></defs><path fill="#00000000" d="M75.0347,67H5.9653C4.8801,67 4,66.0482 4,64.8725V20.1275C4,18.9529 4.8811,18 5.9653,18H75.0347C76.12,18 77,18.9529 77,20.1275V64.8725C77,66.0482 76.12,67 75.0347,67Z" stroke="#4195b9ff" stroke-width="2.0" fill-rule="evenodd" id="path_0"/><path fill="#4195b9ff" d="M27,67H29V18H27V67Z" fill-rule="evenodd" id="path_1"/><path fill="#4195b9ff" d="M4,35.1902H77V33H4V35.1902ZM4,52H77V49.8098H4V52Z" fill-rule="evenodd" id="path_2"/><path fill="#4195b9ff" d="M52,67H54V18H52V67Z" fill-rule="evenodd" id="path_3"/><g id="g_0"><path fill="#66a367ff" d="M12,66H68V19H12V66Z" fill-rule="evenodd" clip-path="url(#clip_path_0)"/></g></svg>