<svg id="vector" xmlns="http://www.w3.org/2000/svg" width="80.0d" height="80.0d" viewBox="0 0 80.0 80.0"><defs><clipPath id="clip_path_0"><path d="M65.472 23c0.44 0 0.813 0.284 0.947 0.678l9.15 13.677 0.024 0.039c0.271 0.45 0.125 1.036-0.326 1.307l-0.002 0.001c-0.117 0.085-0.259 0.138-0.414 0.15l-7.38 0.546V71c0 0.242-0.085 0.463-0.227 0.636-0.132 0.173-0.324 0.3-0.553 0.349l-0.015 0.003-31.04 6.004c-0.127 0.024-0.253 0.018-0.37-0.013-0.063-0.013-0.124-0.032-0.182-0.057l-21.936-7.777c-0.4-0.142-0.653-0.519-0.653-0.924-0.015-0.071-0.023-0.145-0.023-0.221L12.47 39.375l-7.707-1.123c-0.487-0.07-0.825-0.523-0.754-1.01 0.01-0.067 0.028-0.133 0.053-0.197l0.015-0.033c0.023-0.076 0.055-0.15 0.098-0.222l0.012-0.02 8.4-13.238 0.007-0.011C12.764 23.21 13.093 23 13.472 23h52zM36.47 27.734v48.099l29-5.563V39.547l-18.469 1.37-0.036 0.002h-0.037c-0.23 0-0.443-0.08-0.61-0.212-0.135-0.073-0.255-0.175-0.352-0.304l-0.408-0.545-9.088-12.124zm-2 0.326l-7.007 10.666-1.327 2.021c-0.165 0.252-0.422 0.409-0.698 0.455l-0.119 0.013-0.078 0.001-0.052 0.002c-0.042 0-0.083-0.003-0.125-0.009L14.47 39.666v28.955l20 6.928V28.06zM33.849 25H14.258l-7.41 11.369 17.923 2.784L33.849 25zm31.044-0.001L37.176 25l10.085 13.778 25.566-1.925-7.934-11.854z"/></clipPath><clipPath id="clip_path_1"><path d="M47.63 12.998l-8.02 6.408-7.004-6.408h3.004c1.035 0 0.999 0 0.999-1.998V4.002C36.61 2.95 36.62 2 35.61 2c-1.009 0-1 0.95-1 2.002L34.6 11h-4.605c-0.335 0-1.57 0.8-0.386 1.998l8.998 8c0.732 0.74 1.273 0.74 2.004 0l10-8c1.185-1.2-0.25-1.998-0.609-1.998h-5.393V4.002c0-1.052 0-2.002-0.995-2.002s-0.995 0.95-0.995 2.002V11c0 1.052-0.04 1.998 0.995 1.998h4.015z"/></clipPath></defs><g id="g_0"><path fill="#4195b9ff" d="M-1 18h81.73v65.007H-1z" fill-rule="evenodd" clip-path="url(#clip_path_0)"/></g><g id="g_1"><path fill="#66a367ff" d="M24.106-3h31.966v29.553H24.106z" fill-rule="evenodd" clip-path="url(#clip_path_1)"/></g></svg>