<svg id="vector" xmlns="http://www.w3.org/2000/svg" width="80.0d" height="80.0d" viewBox="0 0 80.0 80.0"><path fill="#4195b9ff" d="M52.03 26.77C49.934 15.925 46.3 7.873 44.564 4.439c0.176 0.028 0.353 0.052 0.528 0.081 0.03 0.01 0.07 0.01 0.1 0.02 0.529 0.09 1.04 0.2 1.56 0.31L47.432 5l0.11 0.03c0.56 0.13 1.12 0.28 1.67 0.45 10.7 3.14 19.37 11.06 23.53 21.29H52.03zm-0.945 25.4H29.323c-1.01-8.556-0.491-16.51 0.707-23.4h20.352c1.197 6.889 1.714 14.842 0.703 23.4zm23.156 2c-4.46 10.96-13.09 19.281-24.85 21.89-0.59 0.141-1.171 0.25-1.77 0.351-0.19 0.04-0.39 0.069-0.59 0.099-0.08 0.01-0.17 0.031-0.25 0.04-0.225 0.035-0.45 0.06-0.674 0.089 3.632-7.71 5.722-15.282 6.734-22.469h21.4zM43.3 76.9c-0.35 0.011-0.71 0.02-1.06 0.03-0.26 0.01-0.53 0.01-0.79 0.01-1.53 0-3.04-0.09-4.52-0.279-0.15-0.017-0.296-0.04-0.444-0.064-3.731-7.694-5.853-15.253-6.891-22.427H50.81c-1.043 7.196-3.174 14.78-6.93 22.502-0.027 0.057-0.03 0.118-0.045 0.177-0.18 0.011-0.355 0.033-0.534 0.041v0.01zm-10.18-0.92c-0.18-0.04-0.36-0.08-0.53-0.14-0.28-0.06-0.55-0.13-0.82-0.21-0.36-0.089-0.72-0.2-1.07-0.31-10.47-3.239-18.94-11.08-23.04-21.15h19.9c0.992 7.044 3.018 14.46 6.518 22.011-0.32-0.062-0.64-0.125-0.958-0.201zM6.16 26.77c4.52-11.12 13.37-19.52 25.36-22 0.53-0.12 1.06-0.21 1.6-0.29 0.02-0.01 0.03-0.01 0.05-0.01 0.24-0.05 0.49-0.09 0.74-0.12 0.51-0.07 1.03-0.13 1.55-0.18h0.02c0.169-0.016 0.343-0.019 0.512-0.032-1.666 3.243-5.46 11.454-7.622 22.632H6.16zM42.159 4.157c1.152 2.109 5.455 10.549 7.845 22.613H30.407c2.455-12.393 6.919-20.956 7.918-22.763C38.533 4.004 38.74 4 38.951 4c1.08 0 2.15 0.056 3.208 0.157zM75.59 28.77l-0.7-2c-4.48-11.72-14.52-20.7-26.88-23.7-0.5-0.12-1-0.23-1.5-0.32l-0.14-0.03c-0.31-0.07-0.63-0.12-0.95-0.17-0.44-0.08-0.89-0.14-1.34-0.2-0.05-0.01-0.11-0.01-0.16-0.02-0.252-0.029-0.497-0.067-0.76-0.087-0.22-0.109-0.466-0.133-0.708-0.062C41.302 2.069 40.135 2 38.95 2 38.47 2 38 2.01 37.53 2.03c-0.3 0.01-0.6 0.02-0.9 0.05-0.06 0-0.11 0.01-0.17 0.01-0.41 0.02-0.83 0.06-1.24 0.1-0.32 0.03-0.64 0.06-0.95 0.1-0.06 0.01-0.11 0.01-0.17 0.02-0.47 0.05-0.93 0.12-1.39 0.2C19.16 4.73 8.98 14.05 4.11 26.52c-0.06 0.16-0.1 0.35-0.11 0.53v0.09c0 0.89 0.72 1.63 1.63 1.63h22.38c-1.176 6.919-1.68 14.863-0.702 23.4H6.91C5.76 48.791 5.1 45.19 5 41.45c-0.02-0.54-0.45-0.98-1-0.98-0.56 0-1.02 0.46-1.001 1.02 0.09 3.711 0.73 7.301 1.81 10.68l0.7 2c4.4 11.51 14.19 20.4 26.27 23.531 0.54 0.139 1.09 0.279 1.64 0.389 0.29 0.071 0.58 0.12 0.87 0.18 0.5 0.09 1 0.181 1.5 0.25 0.05 0.01 0.09 0.021 0.14 0.021 0.06 0.009 0.12 0.009 0.17 0.019 1.12 0.17 2.25 0.271 3.4 0.32h0.01c0.39 0.031 0.79 0.05 1.19 0.04h0.02c0.24 0.02 0.48 0.02 0.73 0.02 0.38 0 0.76-0.01 1.14-0.02 0.48-0.009 0.97-0.04 1.45-0.07 0.14-0.01 0.29-0.019 0.43-0.03 0.47-0.04 0.93-0.08 1.39-0.13 0.31-0.04 0.61-0.08 0.92-0.13 0.51-0.06 1.02-0.149 1.53-0.24 13.27-2.39 23.18-11.619 27.98-23.9 0.06-0.17 0.1-0.35 0.11-0.53V53.8c0-0.889-0.72-1.63-1.63-1.63H53.095c0.979-8.537 0.475-16.481-0.701-23.4H73.49c1.15 3.38 1.81 6.98 1.91 10.72 0.02 0.54 0.45 0.98 1 0.98 0.56 0 1.02-0.46 1-1.02-0.09-3.72-0.73-7.3-1.81-10.68z" fill-rule="evenodd" id="path_0"/></svg>