<svg id="vector" xmlns="http://www.w3.org/2000/svg" width="80.0d" height="80.0d" viewBox="0 0 80.0 80.0"><defs><clipPath id="clip_path_0"><path d="M32.2 5c13.474 0 21.459 9.482 21.788 25h7.016C61.99 30 63 31.013 63 31.998v5.14c-0.003 0.94-0.056 1.858-0.999 1.858-0.988 0-0.997-1.007-0.997-1.992v-5.006H3v40.006h37.135c0.943 0.003 1.864 0.056 1.864 0.996 0 0.985-1.011 1-1.999 1H3c-0.988 0-2-1.01-2-1.996V31.998C1 31.013 2.012 30 3 30h7.008C10.353 14.481 18.726 5 32.2 5zM33 44c4.418 0 8 3.582 8 8s-3.582 8-8 8-8-3.582-8-8 3.582-8 8-8zm0 2c-3.314 0-6 2.686-6 6s2.686 6 6 6c3.313 0 6-2.687 6-6s-2.687-6-6-6zM32.2 6.997c-11.195 0-19.784 9.23-20.182 23.002h39.968C51.606 16.228 43.396 6.997 32.2 6.997z"/></clipPath><clipPath id="clip_path_1"><path d="M63 43c8.837 0 16 7.163 16 16s-7.163 16-16 16-16-7.164-16-16 7.163-16 16-16zm0 2c-7.733 0-14 6.268-14 14s6.268 14 14 14 14-6.268 14-14-6.268-14-14-14zm6.452 7.367c0.362-0.423 1.019-0.49 1.468-0.15 0.45 0.341 0.52 0.96 0.158 1.383L61.21 65.09c-0.41 0.478-1.179 0.49-1.604 0.024l-5.352-5c-0.376-0.411-0.327-1.032 0.11-1.386 0.437-0.354 1.096-0.308 1.472 0.104l4.534 4.103 9.083-10.568z"/></clipPath></defs><g id="g_0"><path fill="#4195b9ff" d="M-4 0h72v79H-4z" fill-rule="evenodd" clip-path="url(#clip_path_0)"/></g><g id="g_1"><path fill="#66a367ff" d="M42 38h42v42H42z" fill-rule="evenodd" clip-path="url(#clip_path_1)"/></g></svg>