<svg id="vector" xmlns="http://www.w3.org/2000/svg" width="80.0d" height="80.0d" viewBox="0 0 80.0 80.0"><path fill="#4194b8ff" d="M32.831 9.019c-6.51 0-12.77 2.52-17.61 7.1-4.95 4.69-7.75 11.02-7.89 17.81-0.14 6.77 2.38 13.24 7.07 18.179l16.09 18.101c0.55 0.92 1.54 0.92 2.09 0.92 0.71 0 1.49-0.32 2-0.83l1.811-1.984c0.445-0.486 0.305-1.262-0.284-1.562-0.4-0.204-0.886-0.116-1.189 0.215l-1.788 1.951c-0.08 0.07-0.33 0.21-0.55 0.21-0.13 0-0.3 0-0.4-0.01l-16.31-18.37c-4.34-4.58-6.67-10.54-6.54-16.78 0.13-6.25 2.71-12.08 7.26-16.4 4.41-4.16 10.33-6.55 16.24-6.55 11.253 0 20.853 8.065 22.81 18.934 0.087 0.484 0.495 0.843 0.989 0.843 0.62 0 1.11-0.557 1-1.168-2.12-11.833-12.57-20.609-24.8-20.609" fill-rule="evenodd" id="path_0"/><path fill="#4194b8ff" d="M57.262 67.328v-16.35l5.84-2.6 0.01 2.34v0.01c0 0.12 0.05 1.24 1 1.24 1 0 1-1.25 1-1.25l-0.01-2.9v-0.01c0-0.03-0.01-0.15-0.04-0.31l6.09-2.71 0.023 15.793-13.913 6.747zm-1.035-18.134c-7.07-2.88-11.89-4.83-14.46-5.88l6.29-2.59 13.559 6.07-5.39 2.4zm-0.99 18.2c-8.121-3.6-13.121-5.82-15-6.64v-15.94l15 6.03v16.55zm1.44-30.21l13.29 5.91-5.891 2.61-13.47-6.03 6.07-2.49zm15.672 25.003c0.48-0.232 0.788-0.719 0.788-1.255v-1.308h-0.01l-0.011-16.33v-0.01c0-0.06-0.01-0.38-0.15-0.68 0-0.01-0.01-0.02-0.01-0.03-0.07-0.14-0.16-0.27-0.3-0.37-0.21-0.19-0.43-0.29-0.43-0.29l-14.85-6.61h-0.01c-0.04-0.02-0.18-0.08-0.38-0.11-0.45-0.13-0.96 0.09-0.96 0.09l-16.85 6.93-0.01 0.01c-0.05 0.02-0.3 0.14-0.51 0.34-0.39 0.33-0.42 0.97-0.42 1.06v17.6c0 0.33 0.1 0.61 0.31 0.84l0.02 0.02 0.08 0.08c0.05 0.04 0.09 0.08 0.14 0.11l17.19 7.31c0.46 0.23 1.03-0.01 1.03-0.01l15.343-7.387z" fill-rule="evenodd" id="path_1"/><path fill="none" d="M39.041 31.141c0 3.621-2.935 6.556-6.555 6.556-3.621 0-6.556-2.935-6.556-6.556 0-3.62 2.935-6.556 6.556-6.556 3.62 0 6.555 2.935 6.555 6.556z" stroke="#66a267ff" stroke-width="2.0" fill-rule="evenodd" id="path_2"/></svg>