<svg id="vector" xmlns="http://www.w3.org/2000/svg" width="80.0d" height="80.0d" viewBox="0 0 80.0 80.0"><defs><clipPath id="clip_path_0"><path d="M47 55c0 8.837 7.163 16 15.999 16C71.837 71 79 63.837 79 55s-7.163-16-16.001-16C54.163 39 47 46.163 47 55zm2 0c0-7.731 6.267-14 13.999-14C70.733 41 77 47.268 77 55c0 7.733-6.267 14-14.001 14C55.267 69 49 62.732 49 55zm11.983-5.47l-2.899 3.002-0.082 0.099c-0.121 0.172-0.172 0.381-0.154 0.59-0.024 0.254 0.054 0.51 0.236 0.698l2.899 3.003c0.351 0.362 0.957 0.346 1.354-0.039 0.397-0.383 0.435-0.988 0.085-1.35l-1.282-1.329 3.876 0.026h0.222c1.178 0.006 2.801 0.118 2.801 2.467s-1.623 2.491-2.801 2.5h-0.222l-8.224 0.001C56.046 59.206 55 59.288 55 60.195c0 0.995 1.265 1.002 2.006 1.002h8.328c2.53-0.007 4.692-0.18 4.692-4.5 0-0.59-0.041-1.103-0.117-1.55l-0.045-0.232c-0.542-2.567-2.387-2.709-4.486-2.717l-4.191-0.001 1.235-1.278 0.074-0.088c0.268-0.366 0.208-0.909-0.159-1.264-0.206-0.198-0.468-0.298-0.722-0.298-0.235 0-0.463 0.086-0.632 0.261z"/></clipPath><clipPath id="clip_path_1"><path d="M21.693 11.773v9.737L5.531 10.83l-0.145-0.105C3.737 9.586 2 9.782 2 11.861V62.61l0.003 0.228C2.084 65.361 3.539 66 6.103 66H46c0.553 0 1-0.448 1-1 0-0.553-0.447-1-1-1l-1.533 0.001L5.947 64l-0.145-0.006C4.795 63.918 4 63.053 4 61.995V12l17.058 10.969 0.127 0.089c1.301 0.855 2.274-0.166 2.274-1.835L23.575 12l17.842 12.614 0.117 0.082c1.216 0.796 1.376-0.855 1.385-2.481V12L63.54 25.94l0.103 0.085C63.869 26.239 64 26.542 64 26.862V36c0 0.553 0.447 1 1 1 0.552 0 1-0.447 1-1v-9.037l-0.008-0.228c-0.096-1.205-0.932-2.187-1.904-2.906-11.68-7.832-18.083-12.165-19.21-12.999-1.691-1.252-3.493-1.197-3.493 0.943v10.633L25.294 10.83l-0.141-0.102C24.477 10.259 23.776 10 23.183 10c-0.858 0-1.49 0.542-1.49 1.773z"/></clipPath></defs><g id="g_0"><path fill="#66a367ff" d="M8.908 76H84V24.319H8.908z" fill-rule="evenodd" clip-path="url(#clip_path_0)"/></g><g id="g_1"><path fill="#4195b9ff" d="M-3 71h74V5H-3z" fill-rule="evenodd" clip-path="url(#clip_path_1)"/></g><path fill="#66a267ff" d="M10.08 45.999h6.999V39H10.08zm13.343 0h6.999V39h-6.999zm13.343 0h6.999V39h-6.999z" fill-rule="evenodd" id="path_0"/></svg>