<svg id="vector" xmlns="http://www.w3.org/2000/svg" width="80.0d" height="80.0d" viewBox="0 0 80.0 80.0"><defs><clipPath id="clip_path_0"><path d="M9.865 9C9.668 9 9.592 9.002 9.351 9.009 7.436 9.068 6 9.525 6 13c0 2.996 0.928 3.748 2.379 3.936L4.29 30.896l-0.064 0.233c-0.941 3.657 1.14 7.452 4.768 8.552 0.123 0.038 0.244 0.071 0.365 0.101 0.161 0.04 0.323 0.074 0.485 0.102l0.157 0.027L10 67l0.004 0.235C10.096 70.146 11.939 71 15.002 71l9.792 0.001c0.064 0.02 0.133 0.029 0.206 0.029 0.073 0 0.142-0.009 0.206-0.029l40.09-0.002c0.843-0.008 1.747-0.093 1.747-1.004l-0.007-0.13c-0.087-0.829-1.031-0.868-1.866-0.87L26 68.994V39.998l-0.001-0.037c2.907-0.288 5.394-2.168 6.474-4.821 1.158 2.825 4.305 4.86 8.026 4.86 3.723 0 6.87-2.035 8.027-4.86 1.252 3.073 4.394 5.111 7.885 4.835 0.14-0.011 0.27-0.026 0.394-0.044 2.871-0.389 5.102-2.415 5.888-4.995 0.884 2.46 2.916 4.227 5.308 4.834L68 61.772c0.003 0.682-0.084 1.217 0.865 1.217 1 0 1-0.596 1-1.333L70 39.999c0.543-0.012 1.092-0.083 1.64-0.217 0.122-0.03 0.242-0.063 0.366-0.101 3.706-1.123 5.797-5.058 4.704-8.785l-4.089-13.959C74.073 16.748 75 15.997 75 13c0-4-1.652-4-3.997-4H9.865zM8 13c0-2 1.477-2 2.046-2h60.971C71.623 11.003 73 11.069 73 13c0 1.863-1.281 1.99-1.916 1.999H9.916C9.281 14.99 8 14.863 8 13zm56.303 21.286l-5.111-16.322C59.087 17.646 59.023 17.324 59 17h11.603l4.282 14.475c0.779 2.35-0.793 5.639-3.356 6.327-0.088 0.023-0.167 0.043-0.243 0.058-0.419 0.091-0.846 0.135-1.272 0.135-2.497 0-4.977-1.492-5.711-3.709zm-14.717-0.809l-2.072-16.166c-0.017-0.104-0.029-0.207-0.037-0.311h9.534l4.43 14.97c0.388 2.475-2.372 5.658-5.18 5.988-0.085 0.01-0.18 0.019-0.275 0.026-0.158 0.01-0.314 0.016-0.47 0.016-2.955 0-5.518-1.903-5.93-4.523zm-16.084-0.479L35 17.44l0.007-0.221L35.026 17h10.949C45.991 17.146 46 17.293 46 17.44l1.5 15.558-0.006 0.174C47.32 35.678 43.452 38 40.499 38c-3.021 0-6.997-2.431-6.997-5.002zM33.523 17c-0.008 0.104-0.02 0.207-0.036 0.311l-2.073 16.166-0.038 0.211c-0.54 2.646-3.294 4.505-6.362 4.296-0.095-0.007-0.189-0.016-0.274-0.026-2.809-0.33-5.57-3.513-5.18-5.988L23.989 17h9.534zM22 17c-0.023 0.324-0.087 0.646-0.193 0.964l-5.11 16.322-0.073 0.202c-0.958 2.475-4.115 3.978-6.911 3.372-0.076-0.015-0.154-0.035-0.242-0.058-2.563-0.688-4.136-3.977-3.356-6.327L10.397 17H22zm-7.16 51.992C13.535 68.939 12 68.266 12 67l0.001-27.047 0.227-0.03c2.713-0.391 5.088-2.256 6.071-4.963l0.007-0.023c0.769 2.52 2.918 4.513 5.696 4.965v0.096l-0.001 28.996-8.999 0.001-0.162-0.003z"/></clipPath></defs><g id="g_0"><path fill="#4195b9ff" d="M-1 76.03h83V4H-1z" fill-rule="evenodd" clip-path="url(#clip_path_0)"/></g><path fill="#4195b9ff" d="M21 55.832c-0.552 0-1-0.448-1-1v-1.576c0-0.552 0.448-1 1-1s1 0.448 1 1v1.576c0 0.552-0.448 1-1 1" fill-rule="evenodd" id="path_0"/><path fill="#66a267ff" d="M33.608 56.88c0.273 0 0.499-0.021 0.677-0.067 0.178-0.045 0.32-0.108 0.428-0.186 0.107-0.078 0.182-0.172 0.223-0.28 0.042-0.108 0.063-0.228 0.063-0.36 0-0.281-0.133-0.515-0.397-0.701-0.266-0.186-0.721-0.386-1.366-0.602-0.282-0.1-0.564-0.213-0.845-0.342-0.281-0.127-0.534-0.29-0.757-0.484-0.224-0.194-0.405-0.43-0.546-0.708-0.142-0.277-0.211-0.615-0.211-1.011 0-0.398 0.074-0.756 0.223-1.074 0.149-0.32 0.36-0.59 0.633-0.814 0.273-0.224 0.604-0.395 0.994-0.516 0.389-0.12 0.827-0.18 1.316-0.18 0.579 0 1.08 0.063 1.502 0.186 0.422 0.125 0.77 0.26 1.043 0.41l-0.56 1.528c-0.24-0.125-0.506-0.234-0.8-0.328-0.293-0.096-0.647-0.144-1.061-0.144-0.464 0-0.797 0.065-1 0.192-0.203 0.128-0.304 0.325-0.304 0.59 0 0.159 0.037 0.29 0.112 0.398 0.075 0.107 0.18 0.205 0.317 0.29 0.136 0.089 0.293 0.167 0.47 0.238 0.179 0.07 0.376 0.143 0.59 0.217 0.448 0.166 0.837 0.328 1.168 0.489 0.33 0.163 0.607 0.35 0.826 0.566 0.22 0.215 0.383 0.467 0.49 0.757 0.107 0.29 0.162 0.642 0.162 1.055 0 0.804-0.282 1.426-0.844 1.87-0.564 0.443-1.412 0.663-2.546 0.663-0.381 0-0.725-0.023-1.031-0.068-0.306-0.046-0.577-0.102-0.813-0.167-0.236-0.066-0.44-0.137-0.608-0.211-0.17-0.075-0.313-0.145-0.428-0.211l0.546-1.54c0.256 0.14 0.573 0.267 0.95 0.379 0.376 0.11 0.838 0.167 1.384 0.167m10.07-7.126h1.936v8.604h-1.936v-3.651h-3.253v3.651h-1.937v-8.604h1.937v3.289h3.253zm5.551 4.295c0 0.423 0.05 0.804 0.155 1.144 0.102 0.338 0.252 0.629 0.447 0.875 0.194 0.244 0.431 0.432 0.713 0.565 0.282 0.132 0.604 0.197 0.968 0.197 0.357 0 0.678-0.065 0.962-0.197 0.287-0.133 0.526-0.321 0.72-0.565 0.195-0.246 0.345-0.537 0.447-0.875 0.105-0.34 0.156-0.721 0.156-1.143 0-0.422-0.051-0.806-0.155-1.148-0.103-0.345-0.253-0.638-0.448-0.883-0.195-0.243-0.434-0.432-0.72-0.564-0.284-0.134-0.605-0.2-0.961-0.2-0.366 0-0.688 0.069-0.97 0.206-0.28 0.136-0.518 0.326-0.712 0.57-0.195 0.245-0.345 0.54-0.447 0.883-0.105 0.343-0.155 0.72-0.155 1.136m6.568 0c0 0.736-0.11 1.384-0.33 1.942-0.22 0.559-0.52 1.028-0.9 1.404-0.38 0.377-0.834 0.66-1.36 0.85-0.526 0.19-1.09 0.285-1.695 0.285-0.588 0-1.142-0.094-1.663-0.285-0.52-0.19-0.977-0.473-1.366-0.85-0.39-0.376-0.695-0.845-0.92-1.404-0.223-0.558-0.334-1.206-0.334-1.942 0-0.737 0.116-1.385 0.349-1.943 0.23-0.56 0.544-1.03 0.936-1.41 0.393-0.38 0.85-0.667 1.364-0.857 0.52-0.19 1.064-0.285 1.634-0.285 0.587 0 1.144 0.095 1.663 0.285 0.523 0.19 0.978 0.477 1.367 0.857s0.695 0.85 0.919 1.41c0.223 0.558 0.336 1.206 0.336 1.943m4.321-2.744c-0.143 0-0.28 0.004-0.417 0.013l-0.354 0.023v2.484h0.608c0.671 0 1.177-0.091 1.516-0.273 0.34-0.182 0.51-0.521 0.51-1.018 0-0.24-0.045-0.438-0.132-0.596-0.087-0.157-0.21-0.283-0.372-0.378-0.162-0.096-0.359-0.163-0.59-0.2-0.232-0.036-0.488-0.055-0.769-0.055m-0.125-1.651c1.282 0 2.27 0.225 2.955 0.676 0.688 0.452 1.03 1.19 1.03 2.217 0 1.034-0.347 1.78-1.043 2.24-0.694 0.46-1.688 0.689-2.98 0.689h-0.608v2.88H57.41v-8.479c0.422-0.082 0.87-0.14 1.341-0.173 0.471-0.033 0.887-0.05 1.242-0.05" fill-rule="evenodd" id="path_1"/></svg>