<svg id="vector" xmlns="http://www.w3.org/2000/svg" width="24.0d" height="24.0d" viewBox="0 0 24.0 24.0"><path fill="#4195b9ff" d="M19.011,1.496L19.0425,1.4981C19.0475,1.4986 19.0525,1.4992 19.0575,1.4999C19.1383,1.5076 19.2135,1.5375 19.2782,1.5822C19.3483,1.6288 19.4037,1.6873 19.4422,1.7594C19.481,1.8286 19.5038,1.9072 19.5039,1.9913C19.5043,2.0122 19.5035,2.0333 19.5013,2.0544L19.4999,18.006C19.4999,18.4248 19.0159,18.658 18.6883,18.3971L14.2986,14.8996L11.3201,17.3838C11.0649,17.5965 10.6866,17.5035 10.5497,17.2179L10.5186,17.1353L9.1876,12.4086L3.5248,9.9546C3.1636,9.7981 3.1247,9.3172 3.422,9.0964L3.5034,9.047L18.7454,1.5652C18.7637,1.5545 18.7826,1.5451 18.8018,1.537C18.8665,1.5076 18.934,1.4947 19.0003,1.4957L19.011,1.496ZM18.4999,4.2128L17.0056,7.3526L14.0999,13.4618L18.4999,16.9688V4.2128ZM17.1979,4.6218L10.1286,12.0646L11.2719,16.1208L13.4999,14.2628L13.1665,13.9976C13.0076,13.8708 12.9434,13.6629 12.9967,13.4723L13.0268,13.392L17.1979,4.6218ZM16.7169,3.6758L4.9149,9.4668L9.3789,11.4018L16.7169,3.6758Z" fill-rule="evenodd" id="path_0"/><path fill="#66a367ff" d="M9.2913,18.0936C9.4907,18.2367 9.5535,18.4995 9.4519,18.7136L9.406,18.7914L6.757,22.4832C6.596,22.7076 6.2836,22.759 6.0593,22.598C5.8598,22.4549 5.7971,22.1922 5.8987,21.978L5.9445,21.9003L8.5936,18.2084C8.7545,17.984 9.0669,17.9326 9.2913,18.0936ZM7.7133,15.0047C7.907,15.1554 7.9596,15.4203 7.8499,15.6305L7.8011,15.7064L5.3098,18.9102C5.1403,19.1282 4.8261,19.1675 4.6081,18.998C4.4144,18.8473 4.3618,18.5824 4.4715,18.3722L4.5203,18.2963L7.0116,15.0925C7.1811,14.8745 7.4953,14.8352 7.7133,15.0047ZM12.8012,18.215C12.9585,17.9881 13.27,17.9316 13.4969,18.089C13.6987,18.2288 13.7657,18.4905 13.6676,18.7063L13.623,18.7847L11.2948,22.143C11.1375,22.37 10.826,22.4264 10.599,22.2691C10.3973,22.1292 10.3303,21.8675 10.4284,21.6517L10.473,21.5733L12.8012,18.215Z" fill-rule="evenodd" id="path_1"/></svg>