<svg id="vector" xmlns="http://www.w3.org/2000/svg" width="80.0d" height="80.0d" viewBox="0 0 80.0 80.0"><path fill="#4195b9ff" d="M16.137 49.471c0.795 0 1.44 0.626 1.44 1.397 0 0.772-0.645 1.397-1.44 1.397h-5.17l0.992 4.894c0.354 1.744 1.886 3.02 3.7 3.108l0.202 0.005h3.104c0.637-4.053 4.246-7.159 8.602-7.159 4.806 0 8.702 3.78 8.702 8.444 0 4.663-3.896 8.443-8.702 8.443-4.275 0-7.83-2.991-8.564-6.934h-3.142c-3.277 0-6.095-2.249-6.727-5.368l-1.102-5.433H5.723c-0.748 0-1.363-0.554-1.433-1.262l-0.006-0.135c0-0.771 0.644-1.397 1.44-1.397zm32.589-29.47c0.153 0 0.306 0 0.458 0.003l0.165 0.002c0.111 0.003 0.223 0.005 0.334 0.009 0.083 0.002 0.166 0.004 0.249 0.008l0.13 0.005c0.27 0.01 0.538 0.025 0.805 0.043l0.028 0.002c7.152 0.477 13.643 3.286 18.67 7.65l0.137 0.12 0.186 0.164 0.116 0.104 0.191 0.174 0.19 0.176 0.143 0.134c1.443 1.36 2.753 2.857 3.908 4.474l0.086 0.12c0.166 0.236 0.325 0.468 0.482 0.704 1.685 2.527 2.993 5.313 3.847 8.282l0.382 1.235h-0.055C79.716 45.64 80 47.965 80 50.354v5.913c0 3.673-3.07 6.652-6.856 6.652H69.97C69.3 66.934 65.71 70 61.38 70c-4.328 0-7.917-3.066-8.589-7.081h-9.72c-0.796 0-1.44-0.626-1.44-1.397 0-0.772 0.644-1.397 1.44-1.397h9.733c0.7-3.982 4.274-7.012 8.577-7.012 4.302 0 7.876 3.03 8.577 7.011h3.186c2.196 0 3.977-1.727 3.977-3.857v-5.913c0-2.398-0.316-4.725-0.91-6.943H53.147c-3.557 0-6.44-2.798-6.44-6.248v-14.37h-3.56l-0.138-0.005c-0.73-0.068-1.3-0.665-1.3-1.391 0-0.772 0.644-1.397 1.439-1.397zM27.567 55.906c-3.215 0-5.823 2.53-5.823 5.65 0 3.12 2.607 5.65 5.823 5.65s5.823-2.53 5.823-5.65c0-3.12-2.607-5.65-5.823-5.65zm33.814 0c-3.216 0-5.823 2.53-5.823 5.65 0 3.12 2.607 5.65 5.823 5.65 3.215 0 5.822-2.53 5.822-5.65 0-3.12-2.607-5.65-5.822-5.65zM24.25 41.502c0.795 0 1.44 0.625 1.44 1.397 0 0.771-0.645 1.397-1.44 1.397H1.44C0.645 44.296 0 43.67 0 42.899c0-0.772 0.645-1.397 1.44-1.397zm25.337-18.695v14.356c0 1.907 1.593 3.453 3.56 3.453h22.145c-4.015-10.328-14.11-17.468-25.705-17.809z" stroke-width="1.0" fill-rule="evenodd" id="path_0"/><path fill="#66a367ff" d="M43.333 6.667c-5.49 12.77-18.365 25.872-28.738 29.217-10.397 3.35-14.296-4.363-8.716-17.196l3.602-1.159c-3.652 8.404-1.098 13.454 5.714 11.261 6.797-2.184 15.235-10.765 18.851-19.144l9.287-2.98zm-20 6c-1.814 4.35-6.044 8.802-9.453 9.935-3.407 1.134-4.683-1.483-2.856-5.843z" stroke-width="1.0" fill-rule="evenodd" id="path_1"/></svg>