<svg id="vector" xmlns="http://www.w3.org/2000/svg" width="80.0d" height="80.0d" viewBox="0 0 80.0 80.0"><defs><clipPath id="clip_path_0"><path d="M25.5 8.393c0.608-0.524 1.392-0.524 2 0 2.679 2.356 4.42 3.886 5.226 4.591l1.774-1.59c0.608-0.525 1.392-0.525 2 0L61.4 32.85c0.356 0.308 0.596 0.576 0.596 1.048v3.267c-0.005 0.902-0.09 1.728-0.996 1.728-0.905 0-0.991-0.826-1-1.728v-3.267L35.504 13.393 12 33.893v30.601c0 0.221 0.18 0.4 0.4 0.4h13.2c0.22 0 0.4-0.179 0.4-0.4V46.228c0-1.331 1.01-1.331 1.998-1.331h12.105C41.066 44.899 42 44.965 42 46.889v17.505c0 0.276 0.224 0.5 0.5 0.5h2.744c0.933 0.007 1.754 0.083 1.754 0.995 0 1.004-0.993 1.004-1.998 1.004h-3c-0.895 0-2-1.103-2-1.999V47.29c0-0.221-0.18-0.4-0.4-0.4H28.398c-0.221 0-0.4 0.179-0.4 0.4v17.605c0 0.896-1.103 1.853-1.998 1.853-8.413 0.094-13.05 0.143-13.91 0.146h-0.081c-0.895-0.001-2.009-1.104-2.009-2v-0.876c-3.761-0.017-6.614-0.125-6.991-0.125C2.114 63.893 1 62.79 1 61.894V31.078c0-0.472 0.143-0.879 0.5-1.187l24-21.498zm1.004 2L3 30.893V61.5c0 0.218 0.176 0.397 0.395 0.4L10 61.986V34.078c0-0.42 0.113-0.787 0.389-1.08l0.111-0.107 20.714-18.555-4.71-3.943z"/></clipPath><clipPath id="clip_path_1"><path d="M63 41c8.837 0 16 7.163 16 16s-7.163 16-16 16-16-7.164-16-16 7.163-16 16-16zm0 2c-7.733 0-14 6.268-14 14s6.268 14 14 14 14-6.268 14-14-6.268-14-14-14zm6.452 7.367c0.362-0.423 1.019-0.49 1.468-0.15 0.45 0.341 0.52 0.96 0.158 1.383L61.21 63.09c-0.41 0.478-1.179 0.49-1.604 0.024l-5.352-5c-0.376-0.411-0.327-1.032 0.11-1.386 0.437-0.354 1.096-0.308 1.472 0.104l4.534 4.103 9.083-10.568z"/></clipPath></defs><g id="g_0"><path fill="#4195b9ff" d="M-4 3h70.996v68.893H-4z" fill-rule="evenodd" clip-path="url(#clip_path_0)"/></g><g id="g_1"><path fill="#66a367ff" d="M42 36h42v42H42z" fill-rule="evenodd" clip-path="url(#clip_path_1)"/></g></svg>