<svg id="vector" xmlns="http://www.w3.org/2000/svg" width="80.0d" height="80.0d" viewBox="0 0 80.0 80.0"><defs><clipPath id="clip_path_0"><path d="M23.613 43c1.091 0 2.308 0.092 3.467 0.256 0.852 0.121 1.725 0.78 1.452 1.566-0.274 0.786-1.614 0.45-2.466 0.328C25.05 45.006 23.939 45 23.002 45c-11.198 0-20.26 9.995-20.009 20.671l0.01 0.324 28.238 0.001C32.059 66.005 33 66.094 33 67.002c0 0.953-1.038 0.996-1.881 0.998H2.56C1.698 68 1 67.315 1 66.47 1 53.21 9.941 43 23.613 43zM21 8c6.63 0 11.833 5.438 12 12.562 0.017 0.762-0.514 1.27-1.13 1.403 0.397 0.208 0.707 0.594 0.81 1.089 0.133 0.635 0.228 1.288 0.287 1.955 1.451 0.85 2.257 2.725 1.978 4.66-0.29 2.016-1.685 3.609-3.408 3.89C29.455 38.07 25.47 41 20.997 41c-4.407 0-8.342-2.842-10.45-7.246-1.76-0.237-3.197-1.854-3.492-3.906-0.278-1.932 0.52-3.805 1.957-4.654 0.057-0.737 0.16-1.46 0.308-2.164 0.101-0.483 0.399-0.862 0.782-1.073-0.604-0.14-1.12-0.645-1.102-1.395C9.167 13.438 14.37 8 21 8zm0.133 15c-1.557 0-3.015 0.17-5.234 0.55-2.42 0.413-3.74 0.622-4.677 0.633-0.039 0.447-0.062 0.9-0.068 1.36-0.013 0.92-0.618 1.697-1.432 1.837l-0.078 0.011c-0.384 0.094-0.741 0.785-0.62 1.694 0.12 0.886 0.621 2.426 1.005 2.418 0.035-0.013 0.067-0.023 0.104-0.035 0.825-0.253 1.688 0.223 2.01 1.107C13.8 37.11 17.232 39 20.998 39c3.813 0 7.281-1.967 8.91-6.593 0.306-0.868 1.133-1.357 1.947-1.15 0.042 0.011 0.076 0.02 0.11 0.032 0.395 0.002 0.894-1.538 1.012-2.416 0.123-0.917-0.248-1.616-0.647-1.698l-0.083-0.012c-0.797-0.149-1.388-0.907-1.41-1.81-0.01-0.395-0.031-0.785-0.065-1.169-0.889-0.025-2.151-0.232-4.458-0.635C24.146 23.171 22.693 23 21.134 23zm-2.37 9.284c0.056 0.052 0.224 0.171 0.497 0.302 0.487 0.235 1.074 0.378 1.763 0.378 0.697 0 1.28-0.135 1.756-0.354 0.158-0.073 0.29-0.148 0.394-0.22l0.056-0.04 0.015-0.012c0.419-0.385 1.078-0.365 1.473 0.044 0.394 0.41 0.374 1.054-0.045 1.44-0.198 0.182-0.532 0.412-1.004 0.63C22.92 34.796 22.036 35 21.023 35c-1.02 0-1.918-0.219-2.683-0.586-0.479-0.23-0.818-0.472-1.02-0.661-0.415-0.39-0.428-1.034-0.03-1.44 0.399-0.406 1.059-0.419 1.474-0.03zM16.5 26c0.768 0 1.401 0.757 1.499 1.738C18.013 27.88 17.897 28 17.759 28h-2.518c-0.137 0-0.254-0.12-0.24-0.262C15.1 26.757 15.732 26 16.5 26zm9 0c0.768 0 1.402 0.757 1.499 1.738C27.013 27.88 26.897 28 26.759 28H24.24c-0.137 0-0.253-0.12-0.239-0.262C24.098 26.757 24.732 26 25.5 26zM21 18.893c-4.671 0-8.634 1.18-9.302 2.374-0.138 0.246-0.322 0.426-0.53 0.546 0.055 0.012 0.111 0.029 0.167 0.05 0.6 0.221 1.32 0.156 4.555-0.36C18.052 21.158 19.51 21 21.121 21c1.614 0 3.072 0.16 5.19 0.505 3.153 0.513 3.802 0.575 4.37 0.373 0.06-0.021 0.12-0.039 0.18-0.052-0.22-0.117-0.415-0.302-0.558-0.559-0.67-1.195-4.632-2.374-9.303-2.374zm-0.004-9.191c-4.903 0-9.678 3.624-10.5 10 2.702-1.362 6.431-2.55 10.5-2.55 4.07 0 7.8 1.189 10.5 2.55-1.14-6.376-5.596-10-10.5-10zm2.524 1.628c-0.722 1.576-2.386 3.182-3.736 3.623-1.35 0.41-1.852-0.535-1.13-2.11l0.47-0.158c-0.47 1.04-0.156 1.67 0.755 1.386 0.878-0.284 1.978-1.323 2.449-2.363l1.192-0.378zm-2.542 0.756c-0.252 0.504-0.786 1.04-1.256 1.198-0.472 0.157-0.628-0.19-0.377-0.694l1.633-0.504z"/></clipPath><clipPath id="clip_path_1"><path d="M66 46c7.18 0 13 5.82 13 13s-5.82 13-13 13-13-5.82-13-13 5.82-13 13-13zm0 2c-6.075 0-11 4.925-11 11s4.925 11 11 11 11-4.925 11-11-4.925-11-11-11zM49.755 30.038c0.193 0.036 0.34 0.094 0.378 0.11l0.01 0.005 14.845 6.606s0.221 0.099 0.434 0.287c0.136 0.1 0.231 0.235 0.299 0.376l0.01 0.025c0.137 0.301 0.151 0.62 0.153 0.681v0.01l0.009 5.706s0 1.247-1 1.247c-0.947 0-0.997-1.12-1-1.237v-0.01l-0.007-4.25-6.085 2.71c0.03 0.152 0.034 0.272 0.035 0.307v0.01l0.01 2.898s0 1.247-1 1.247c-0.948 0-0.998-1.12-1-1.237v-0.01l-0.008-2.342-5.839 2.599v16.35l0.98-0.439 0.028-0.011c0.146-0.055 0.823-0.266 1.193 0.404l0.062 0.128c0.37 0.872-0.572 1.326-0.673 1.372l-0.008 0.003-1.812 0.838s-0.571 0.242-1.03 0.009L31.55 57.123c-0.049-0.035-0.094-0.071-0.136-0.11l-0.007-0.005-0.074-0.074c-0.013-0.012-0.02-0.02-0.026-0.028-0.205-0.23-0.307-0.51-0.307-0.84v-17.6c0.002-0.088 0.03-0.724 0.422-1.053 0.211-0.206 0.457-0.323 0.509-0.347l0.01-0.004 16.847-6.93s0.51-0.217 0.967-0.094zm16.582 22.53c0.367 0.354 0.427 0.897 0.16 1.263l-0.075 0.088-1.235 1.279h4.19c2.1 0.008 3.944 0.15 4.487 2.717l0.045 0.232c0.077 0.446 0.117 0.96 0.117 1.55 0 4.32-2.163 4.493-4.692 4.5h-8.328c-0.74 0-2.006-0.007-2.006-1.003 0-0.906 1.046-0.988 1.792-0.996h8.224l0.222-0.001c1.178-0.009 2.801-0.151 2.801-2.5 0-2.348-1.623-2.461-2.801-2.467h-0.222l-3.876-0.025 1.282 1.328c0.35 0.362 0.312 0.967-0.085 1.35-0.397 0.384-1.003 0.402-1.353 0.039l-2.9-3.003c-0.183-0.189-0.26-0.443-0.236-0.698-0.018-0.21 0.033-0.419 0.154-0.59l0.082-0.098 2.9-3.003c0.35-0.363 0.956-0.346 1.353 0.038zM32.999 39.66v15.938c1.877 0.824 6.877 3.038 15 6.643V45.689l-15-6.028zm7.817-4.088l-6.289 2.588c2.577 1.046 7.397 3.005 14.46 5.877l5.396-2.393-13.567-6.071zm8.62-3.546l-6.069 2.497 13.477 6.028 5.884-2.61-13.292-5.915z"/></clipPath></defs><g id="g_0"><path fill="#4195b9ff" d="M-4 3h44v70H-4z" fill-rule="evenodd" clip-path="url(#clip_path_0)"/></g><g id="g_1"><path fill="#66a367ff" d="M26 25h58v52H26z" fill-rule="evenodd" clip-path="url(#clip_path_1)"/></g></svg>