<svg id="vector" xmlns="http://www.w3.org/2000/svg" width="80.0d" height="80.0d" viewBox="0 0 80.0 80.0"><defs><clipPath id="clip_path_0"><path d="M49 22.553L29.39 8.89C27.33 7.41 25 7.476 25 10.003v11.492L5.303 8.89C3.243 7.41 1 7.582 1 10.108V70c0 3.201 1.784 4 5 4h68.005C77.22 74 79 72.197 79 68.995V27.93c0-1.544-1.071-2.796-2.331-3.698C62.435 14.989 54.631 9.875 53.258 8.89 51.198 7.413 49 7.478 49 10.003v12.55zm2-12.549l25.433 16.62c0.356 0.254 0.567 0.663 0.567 1.1V69.61c0 1.32-1.076 2.39-2.402 2.39H5.402C4.076 72 3 70.93 3 69.61V10.004l21.038 13.078C25.722 24.284 27 23.055 27 21l0.142-10.996 22.006 15.039C50.828 26.247 51 24.056 51 22V10.004z"/></clipPath><clipPath id="clip_path_1"><path d="M63.638 29.98c-6.57 14.206-21.71 28.696-33.993 32.674-12.282 3.693-16.852-4.83-10.283-19.036l4.285-1.42c-4.285 9.375-1.429 15.057 6.855 12.5C38.501 52.142 48.5 42.767 52.783 33.39l10.855-3.41zm-23.136 6.78c-2.294 4.563-7.17 9.413-11.472 10.839-4.302 1.426-5.736-1.712-3.441-6.276l14.913-4.564z"/></clipPath></defs><g id="g_0"><path fill="#4195b9ff" d="M-4 2.911h88V79H-4z" fill-rule="evenodd" clip-path="url(#clip_path_0)"/></g><g id="g_1"><path fill="#66a367ff" d="M11.362 24.98h57.276v43.535H11.362z" fill-rule="evenodd" clip-path="url(#clip_path_1)"/></g></svg>