<svg id="vector" xmlns="http://www.w3.org/2000/svg" width="80.0d" height="80.0d" viewBox="0 0 80.0 80.0"><defs><clipPath id="clip_path_0"><path d="M32 42.897H19.998c-0.988 0-1.998 0-1.998 1.331v18.266c0 0.221-0.18 0.4-0.4 0.4H4.4c-0.22 0-0.4-0.179-0.4-0.4v-30.6l23.504-20.5L52 31.897v6.995c0 1 0.004 2 1 2s1-1 0.996-2v-6.995c0-0.472-0.24-0.74-0.597-1.048L28.5 9.393c-0.608-0.524-1.392-0.524-2 0l-24 21.498C2.143 31.199 2 31.606 2 32.078v30.816c0 0.896 1.114 2 2.009 2 0.597 0 5.26-0.05 13.991-0.147 0.895 0 1.998-0.957 1.998-1.853V45.29c0-0.221 0.179-0.4 0.4-0.4H31.6c0.22 0 0.4 0.179 0.4 0.4v17.605c0 0.896 1.105 2 2 2h10c1.005 0 1.998 0 1.998-1.005 0-1.004-0.993-0.995-2.036-0.995H34.5c-0.276 0-0.5-0.224-0.5-0.5V44.89c0-1.992-1.002-1.992-2-1.992z"/></clipPath><clipPath id="clip_path_1"><path d="M62 40c8.837 0 16 7.163 16 16s-7.163 16-16 16-16-7.164-16-16 7.163-16 16-16zm0 2c-7.733 0-14 6.268-14 14s6.268 14 14 14 14-6.268 14-14-6.268-14-14-14zm6.452 7.367c0.362-0.423 1.019-0.49 1.468-0.15 0.45 0.341 0.52 0.96 0.158 1.383L60.21 62.09c-0.41 0.478-1.179 0.49-1.604 0.024l-5.352-5c-0.376-0.411-0.327-1.032 0.11-1.386 0.437-0.354 1.096-0.308 1.472 0.104l4.534 4.103 9.083-10.568z"/></clipPath></defs><g id="g_0"><path fill="#4195b9ff" d="M-3 4h61.996v65.893H-3z" fill-rule="evenodd" clip-path="url(#clip_path_0)"/></g><g id="g_1"><path fill="#66a367ff" d="M41 35h42v42H41z" fill-rule="evenodd" clip-path="url(#clip_path_1)"/></g></svg>