<svg id="vector" xmlns="http://www.w3.org/2000/svg" width="99.0d" height="75.0d" viewBox="0 0 99.0 75.0"><defs><clipPath id="clip_path_0"><path d="M1 83.707h97.239v-85.73H1z"/></clipPath><clipPath id="clip_path_1"><path d="M1 83.707h97.239v-85.73H1z"/></clipPath><clipPath id="clip_path_2"><path d="M1 83.707h97.239v-85.73H1z"/></clipPath><clipPath id="clip_path_3"><path d="M61.302 49.744c0 8.637 7.02 15.64 15.68 15.64s15.68-7.003 15.68-15.64c0-8.64-7.02-15.642-15.68-15.642s-15.681 7.003-15.681 15.642zm1.96 0c0-7.559 6.142-13.687 13.72-13.687 7.579 0 13.721 6.128 13.721 13.687 0 7.557-6.142 13.684-13.722 13.684-7.577 0-13.719-6.127-13.719-13.684zm11.744-5.348l-2.841 2.936-0.08 0.095c-0.12 0.168-0.168 0.372-0.15 0.577-0.025 0.249 0.051 0.498 0.23 0.682l2.84 2.936c0.345 0.355 0.939 0.338 1.328-0.038 0.39-0.375 0.426-0.965 0.083-1.32l-1.256-1.298 3.798 0.025h0.218c1.155 0.005 2.745 0.116 2.745 2.412 0 2.295-1.59 2.435-2.745 2.442h-0.218l-8.06 0.001c-0.73 0.008-1.756 0.088-1.756 0.975 0 0.974 1.241 0.98 1.966 0.98h8.162c2.48-0.006 4.599-0.175 4.599-4.398 0-0.578-0.04-1.08-0.115-1.517L83.71 49.66c-0.532-2.509-2.34-2.648-4.397-2.655l-4.107-0.001 1.21-1.25 0.072-0.087c0.263-0.357 0.204-0.888-0.155-1.234-0.202-0.195-0.459-0.292-0.707-0.292-0.231 0-0.455 0.085-0.62 0.255z"/></clipPath></defs><path fill="#4195b9ff" d="M77.528 12.543H8.536c-1.617 0-2.94 1.32-2.94 2.932v41.183c0 1.62 1.328 2.943 2.95 2.943h51.643c0.54 0 0.98-0.438 0.98-0.978s-0.44-0.977-0.98-0.977H8.536c-0.539 0-0.98-0.44-0.98-0.988V15.485c0-0.548 0.441-0.987 0.98-0.987h68.992c0.539 0 0.98 0.44 0.98 0.987v16.18c0 0.54 0.439 0.977 0.98 0.977 0.542 0 0.98-0.437 0.98-0.977v-16.18c0-1.623-1.323-2.942-2.94-2.942" fill-rule="evenodd" id="path_0"/><g id="g_0"><path fill="#4195b9ff" d="M30.032 58.726h1.96V13.454h-1.96z" fill-rule="evenodd" clip-path="url(#clip_path_0)"/></g><g id="g_1"><path fill="#4195b9ff" d="M6.913 29.504h72.576v-1.956H6.913zm53.041 14.027c0 0.54-0.438 0.977-0.98 0.977H6.914v-1.955h52.06c0.542 0 0.98 0.438 0.98 0.978" fill-rule="evenodd" clip-path="url(#clip_path_1)"/></g><g id="g_2"><path fill="#4195b9ff" d="M54.403 58.707h1.96V13.435h-1.96z" fill-rule="evenodd" clip-path="url(#clip_path_2)"/></g><g id="g_3"><path fill="#66a367ff" d="M56.402 70.271h41.16V29.215h-41.16z" fill-rule="evenodd" clip-path="url(#clip_path_3)"/></g></svg>