<svg id="vector" xmlns="http://www.w3.org/2000/svg" width="80.0d" height="80.0d" viewBox="0 0 80.0 80.0"><defs><clipPath id="clip_path_0"><path d="M63 39c8.837 0 16 7.163 16 16s-7.163 16-16 16-16-7.164-16-16 7.163-16 16-16zm0 2c-7.732 0-14 6.268-14 14s6.268 14 14 14 14-6.268 14-14-6.268-14-14-14zm-0.663 8.568c0.367 0.354 0.427 0.897 0.16 1.263l-0.075 0.088-1.235 1.279h4.19c2.1 0.008 3.944 0.15 4.487 2.717l0.045 0.232c0.077 0.446 0.117 0.96 0.117 1.55 0 4.32-2.163 4.493-4.692 4.5h-8.328c-0.74 0-2.006-0.007-2.006-1.003 0-0.906 1.046-0.988 1.792-0.996h8.224l0.222-0.001c1.178-0.009 2.801-0.15 2.801-2.5 0-2.348-1.623-2.461-2.801-2.467h-0.222l-3.876-0.025 1.282 1.328c0.35 0.362 0.312 0.967-0.085 1.35-0.397 0.384-1.003 0.402-1.353 0.039l-2.9-3.003c-0.183-0.189-0.26-0.443-0.236-0.698-0.018-0.21 0.033-0.419 0.154-0.59l0.082-0.098 2.9-3.003c0.35-0.363 0.956-0.346 1.353 0.038zm-8.944-20.249c-5.488 11.895-18.131 24.027-28.39 27.358-10.26 3.091-14.076-4.045-8.589-15.94l3.579-1.188c-3.579 7.85-1.194 12.607 5.726 10.466 6.68-2.14 15.03-9.99 18.608-17.84l9.066-2.857zM34.07 34.995c-1.916 3.822-5.988 7.882-9.582 9.076-3.592 1.194-4.79-1.433-2.874-5.254l12.456-3.822z"/></clipPath><clipPath id="clip_path_1"><path d="M40.998 66H6.103c-2.564 0-4.018-0.639-4.1-3.162L2 62.61V11.862c0-2.081 1.737-2.278 3.386-1.138L5.53 10.83l16.162 10.68v-9.738c0-2.08 1.807-2.192 3.46-1.044l0.142 0.101 16.09 11.577V11.772c0-2.14 1.804-2.194 3.494-0.943 1.127 0.835 7.53 5.168 19.21 13 0.972 0.72 1.808 1.701 1.903 2.906L66 26.963V36c0 0.552-0.448 1-1 1s-1-0.448-1-1v-9.138c0-0.32-0.131-0.623-0.357-0.836L63.54 25.94 42.919 12v10.214c-0.009 1.627-0.169 3.277-1.385 2.482l-0.117-0.082L23.575 12l-0.116 9.223c0 1.67-0.972 2.69-2.274 1.835l-0.127-0.089L4 12v49.995c0 1.058 0.795 1.923 1.802 2L5.947 64H46c0.552 0 1 0.448 1 1s-0.448 1-1 1h-5.002z"/></clipPath></defs><g id="g_0"><path fill="#66a367ff" d="M8.908 24.319H84V76H8.908z" fill-rule="evenodd" clip-path="url(#clip_path_0)"/></g><g id="g_1"><path fill="#4195b9ff" d="M-3 5h74v66H-3z" fill-rule="evenodd" clip-path="url(#clip_path_1)"/></g></svg>