<svg id="vector" xmlns="http://www.w3.org/2000/svg" width="80.0d" height="80.0d" viewBox="0 0 80.0 80.0"><defs><clipPath id="clip_path_0"><path d="M15 20.562c-0.017 0.751 0.498 1.255 1.102 1.394-0.383 0.213-0.681 0.592-0.782 1.074-0.149 0.704-0.251 1.426-0.308 2.164-1.436 0.849-2.235 2.721-1.957 4.654 0.295 2.052 1.732 3.67 3.491 3.906C18.655 38.158 22.59 41 26.997 41c4.473 0 8.458-2.93 10.539-7.442 1.725-0.281 3.12-1.874 3.409-3.889 0.279-1.936-0.527-3.81-1.979-4.66-0.058-0.667-0.153-1.32-0.287-1.956-0.102-0.494-0.412-0.88-0.81-1.088 0.618-0.133 1.149-0.641 1.131-1.403C38.833 13.438 33.629 8 27 8c-6.63 0-11.833 5.438-12 12.562zm11.996-10.86c4.904 0 9.36 3.624 10.501 10-2.702-1.361-6.431-2.55-10.501-2.55-4.068 0-7.798 1.188-10.499 2.55 0.821-6.376 5.596-10 10.499-10zm-9.661 12.161c-0.056-0.021-0.112-0.038-0.167-0.05 0.208-0.12 0.392-0.3 0.53-0.546 0.668-1.194 4.631-2.374 9.302-2.374 4.671 0 8.634 1.18 9.302 2.374 0.144 0.257 0.339 0.442 0.558 0.559-0.059 0.013-0.119 0.03-0.179 0.051-0.568 0.203-1.217 0.141-4.369-0.372C30.193 21.16 28.735 21 27.122 21c-1.612 0-3.069 0.158-5.231 0.504-2.099 0.334-3.14 0.479-3.776 0.479-0.344 0-0.57-0.043-0.78-0.12zm-2.31 7.221c-0.123-0.908 0.235-1.599 0.619-1.693l0.078-0.011c0.815-0.141 1.419-0.916 1.432-1.837 0.006-0.46 0.029-0.914 0.068-1.36 0.937-0.011 2.257-0.22 4.677-0.634C24.117 23.169 25.575 23 27.133 23c1.559 0 3.012 0.171 5.18 0.549 2.307 0.403 3.569 0.611 4.458 0.636 0.034 0.383 0.055 0.773 0.065 1.168 0.023 0.903 0.613 1.661 1.41 1.81l0.083 0.011c0.4 0.082 0.77 0.783 0.647 1.699-0.118 0.878-0.616 2.417-1.012 2.415l-0.111-0.031c-0.813-0.207-1.64 0.282-1.946 1.15C34.278 37.033 30.81 39 26.997 39c-3.766 0-7.198-1.89-8.853-6.425-0.323-0.884-1.186-1.36-2.011-1.107-0.037 0.012-0.069 0.022-0.104 0.035h-0.003c-0.383 0-0.883-1.535-1.001-2.419zm14.976-1.346C29.987 27.88 30.103 28 30.24 28h2.52c0.137 0 0.253-0.12 0.239-0.262-0.097-0.981-0.731-1.738-1.5-1.738-0.767 0-1.401 0.757-1.498 1.738zm-9 0C20.987 27.88 21.103 28 21.241 28h2.518c0.138 0 0.254-0.12 0.24-0.262C23.901 26.757 23.268 26 22.5 26c-0.768 0-1.401 0.757-1.499 1.738zm2.289 4.575c-0.399 0.406-0.385 1.05 0.03 1.44 0.202 0.189 0.542 0.431 1.02 0.66C25.105 34.781 26.003 35 27.023 35c1.013 0 1.898-0.204 2.645-0.548 0.472-0.218 0.806-0.448 1.004-0.631 0.419-0.385 0.439-1.03 0.045-1.439-0.395-0.41-1.054-0.429-1.473-0.043 0.001-0.003-0.003 0.001-0.015 0.011l-0.056 0.039c-0.105 0.072-0.236 0.148-0.394 0.221-0.477 0.219-1.059 0.353-1.756 0.353-0.69 0-1.276-0.142-1.764-0.377-0.272-0.131-0.441-0.251-0.495-0.302C24.562 32.094 24.302 32 24.042 32c-0.274 0-0.547 0.105-0.752 0.313zM7 66.469C7 67.314 7.699 68 8.56 68h28.559C37.962 67.998 39 67.955 39 67.002c0-0.907-0.941-0.997-1.759-1.006L9.004 65.995l-0.011-0.324C8.743 54.995 17.804 45 29.003 45c0.936 0 2.047 0.006 3.063 0.15 0.852 0.122 2.192 0.458 2.466-0.327 0.273-0.787-0.6-1.446-1.453-1.567C31.921 43.092 30.704 43 29.614 43 15.942 43 7 53.209 7 66.469z"/></clipPath><clipPath id="clip_path_1"><path d="M0 80h80V0H0z"/></clipPath></defs><g id="g_0"><path fill="#4195b9ff" d="M2 73h44V3H2z" fill-rule="evenodd" clip-path="url(#clip_path_0)"/></g><path fill="#66a267ff" d="M56.025 67.174v-16.35l5.84-2.6 0.011 2.34v0.01c0 0.12 0.05 1.24 1 1.24 1 0 1-1.25 1-1.25l-0.01-2.9v-0.01c0-0.03-0.01-0.15-0.04-0.31l6.09-2.71 0.022 15.793-13.913 6.747zM54.99 49.04c-7.07-2.88-11.89-4.83-14.46-5.88l6.29-2.59 13.56 6.07-5.39 2.4zM54 67.24c-8.12-3.6-13.12-5.82-15-6.64V44.66l15 6.03v16.55zm1.44-30.21l13.29 5.91-5.89 2.61-13.47-6.03 6.07-2.49zm15.671 25.003c0.482-0.232 0.79-0.72 0.79-1.254v-1.31h-0.012l-0.01-16.33v-0.01c0-0.06-0.009-0.38-0.149-0.68 0-0.008-0.01-0.02-0.01-0.03-0.07-0.14-0.16-0.268-0.3-0.37-0.21-0.188-0.43-0.29-0.43-0.29l-14.85-6.61h-0.01c-0.04-0.02-0.18-0.08-0.38-0.11-0.45-0.13-0.96 0.09-0.96 0.09l-16.85 6.93-0.01 0.01c-0.05 0.02-0.3 0.14-0.51 0.34-0.39 0.33-0.42 0.97-0.42 1.06v17.6c0 0.332 0.1 0.61 0.31 0.84l0.02 0.02 0.08 0.08c0.05 0.04 0.09 0.08 0.14 0.11l17.19 7.31c0.46 0.23 1.03-0.01 1.03-0.01l15.341-7.386z" fill-rule="evenodd" id="path_0"/><g id="g_1"><path fill="#66a267ff" d="M22.139 15.353h2.172v-2h-2.172zm3.908 0h2.172v-2h-2.172zm3.907 0h2.172v-2h-2.172z" fill-rule="evenodd" clip-path="url(#clip_path_1)"/></g></svg>