<svg id="vector" xmlns="http://www.w3.org/2000/svg" width="91.0d" height="90.0d" viewBox="0 0 91.0 90.0"><defs><clipPath id="clip_path_0"><path d="M64.557 8.44c-4.276 9.462-14.259 18.922-22.246 21.504-8.273 2.58-11.123-3.154-6.846-12.615l-4.277 1.434c-6.561 14.334-1.997 22.935 10.267 19.208C53.72 33.957 68.836 19.335 75.396 5L64.557 8.44zm-27.153 8.006c-2.291 4.606-0.859 7.772 3.437 6.333 4.295-1.439 9.164-6.333 11.455-10.938l-14.892 4.605z"/></clipPath><clipPath id="clip_path_1"><path d="M57.893 70.107c0 8.837 7.163 15.999 15.998 15.999 8.838 0 16.002-7.162 16.002-15.999s-7.164-16.001-16.002-16.001c-8.835 0-15.998 7.165-15.998 16.001zm2 0c0-7.732 6.267-14.001 13.998-14.001 7.734 0 14.002 6.269 14.002 14.001 0 7.732-6.268 13.999-14.002 13.999-7.731 0-13.998-6.267-13.998-13.999zm20.451-6.633l-9.082 10.568-4.535-4.104c-0.376-0.411-1.035-0.458-1.471-0.103-0.438 0.354-0.486 0.975-0.111 1.387l5.352 4.998c0.426 0.467 1.196 0.455 1.604-0.025l9.87-11.488c0.362-0.422 0.29-1.042-0.159-1.383-0.193-0.146-0.424-0.217-0.653-0.217-0.306 0-0.608 0.125-0.815 0.367z"/></clipPath></defs><path fill="#4094b9ff" d="M60.006 52.999h-12.01l0.065 24.221c0 0.983-0.791 1.78-1.77 1.78H15c-1.1 0-2-0.9-2-2V30H7.5c-0.916 0-1.432-0.205-1.49-0.87L6.005 29c0-0.769 0.522-1 1.496-1h15c0.975 0 1.504 0.231 1.504 1s-0.53 1-1.504 1H15v47h31V52.999c0-0.982 1.02-1.996 1.997-1.996h12.01c0.55 0 0.998 0.446 0.998 0.998s-0.447 0.998-0.998 0.998M74 48.559v-18.56h-7.503c-0.976 0-1.497-0.23-1.497-1 0-0.767 0.521-1 1.497-1h15c0.975 0 1.503 0.233 1.503 1 0 0.77-0.528 1-1.503 1h-5.495v18.56c0 0.553-0.448 1-1.001 1-0.553 0-1.001-0.447-1.001-1" fill-rule="evenodd" id="path_0"/><g id="g_0"><path fill="#66a367ff" d="M23.192 43.841h57.205V0H23.192z" fill-rule="evenodd" clip-path="url(#clip_path_0)"/></g><g id="g_1"><path fill="#66a367ff" d="M52.893 91.106h42v-42h-42z" fill-rule="evenodd" clip-path="url(#clip_path_1)"/></g></svg>