<svg id="vector" xmlns="http://www.w3.org/2000/svg" width="91.0d" height="90.0d" viewBox="0 0 91.0 90.0"><defs><clipPath id="clip_path_0"><path d="M64.557 8.44c-4.276 9.462-14.259 18.922-22.246 21.504-8.273 2.58-11.123-3.154-6.846-12.615l-4.277 1.434c-6.561 14.334-1.997 22.935 10.267 19.208C53.72 33.957 68.836 19.335 75.396 5L64.557 8.44zm-27.153 8.006c-2.291 4.606-0.859 7.772 3.437 6.333 4.295-1.439 9.164-6.333 11.455-10.938l-14.892 4.605z"/></clipPath><clipPath id="clip_path_1"><path d="M58 70.107c0 8.837 7.163 15.999 15.999 15.999C82.837 86.106 90 78.944 90 70.107s-7.163-16.001-16.001-16.001C65.163 54.106 58 61.271 58 70.107zm2 0c0-7.732 6.268-14.001 13.999-14.001C81.732 56.106 88 62.375 88 70.107c0 7.732-6.268 13.999-14.001 13.999C66.268 84.106 60 77.839 60 70.107zm11.983-5.471l-2.899 3.004-0.082 0.097c-0.121 0.172-0.172 0.382-0.153 0.59-0.025 0.255 0.053 0.51 0.235 0.699l2.899 3.002c0.351 0.364 0.956 0.346 1.354-0.038 0.398-0.384 0.436-0.988 0.085-1.35l-1.282-1.329 3.875 0.026h0.224c1.177 0.005 2.8 0.119 2.8 2.468 0 2.347-1.623 2.49-2.8 2.498l-0.224 0.001h-8.223C67.046 74.312 66 74.394 66 75.301c0 0.996 1.266 1.004 2.006 1.004l8.328-0.001c2.529-0.007 4.693-0.18 4.693-4.499 0-0.592-0.042-1.105-0.117-1.551l-0.045-0.233c-0.544-2.566-2.388-2.709-4.487-2.716h-4.191l1.235-1.28 0.074-0.087c0.268-0.366 0.208-0.91-0.159-1.263-0.206-0.199-0.468-0.3-0.722-0.3-0.235 0-0.463 0.087-0.632 0.261z"/></clipPath></defs><path fill="#4094b9ff" d="M60.006 52.999h-12.01l0.065 24.221c0 0.983-0.791 1.78-1.77 1.78H15c-1.1 0-2-0.9-2-2V30H7.5c-0.916 0-1.432-0.205-1.49-0.87L6.005 29c0-0.769 0.522-1 1.496-1h15c0.975 0 1.504 0.231 1.504 1s-0.53 1-1.504 1h-7.502v47h31V52.999c0-0.982 1.02-1.996 1.997-1.996h12.01c0.55 0 0.998 0.446 0.998 0.998s-0.447 0.998-0.998 0.998M74 48.559v-18.56h-7.503c-0.976 0-1.497-0.23-1.497-1 0-0.767 0.521-1 1.497-1h15c0.975 0 1.503 0.233 1.503 1 0 0.77-0.528 1-1.503 1h-5.495v18.56c0 0.553-0.448 1-1.001 1-0.553 0-1.001-0.447-1.001-1" fill-rule="evenodd" id="path_0"/><g id="g_0"><path fill="#66a367ff" d="M23.192 43.841h57.205V0H23.192z" fill-rule="evenodd" clip-path="url(#clip_path_0)"/></g><g id="g_1"><path fill="#66a367ff" d="M53 91.106h42v-42H53z" fill-rule="evenodd" clip-path="url(#clip_path_1)"/></g></svg>