<svg id="vector" xmlns="http://www.w3.org/2000/svg" width="80.0d" height="80.0d" viewBox="0 0 80.0 80.0"><defs><clipPath id="clip_path_0"><path d="M9.001 20.562c-0.018 0.751 0.497 1.255 1.101 1.394-0.383 0.213-0.681 0.592-0.782 1.074-0.149 0.704-0.252 1.426-0.308 2.164-1.437 0.849-2.235 2.721-1.957 4.654 0.294 2.052 1.732 3.67 3.492 3.906C12.655 38.158 16.591 41 20.997 41c4.474 0 8.457-2.93 10.54-7.442 1.723-0.281 3.118-1.874 3.408-3.889 0.279-1.936-0.527-3.81-1.978-4.66-0.058-0.667-0.155-1.32-0.287-1.956-0.104-0.494-0.413-0.88-0.81-1.088 0.616-0.133 1.147-0.641 1.129-1.403C32.833 13.438 27.629 8 21 8 14.37 8 9.167 13.438 9.001 20.562zm11.996-10.86c4.903 0 9.359 3.624 10.499 10-2.701-1.361-6.43-2.55-10.499-2.55-4.07 0-7.799 1.188-10.5 2.55 0.821-6.376 5.596-10 10.5-10zm-9.662 12.161c-0.055-0.021-0.112-0.038-0.167-0.05 0.208-0.12 0.393-0.3 0.53-0.546 0.668-1.194 4.631-2.374 9.302-2.374 4.671 0 8.633 1.18 9.303 2.374 0.143 0.257 0.338 0.442 0.557 0.559-0.059 0.013-0.12 0.03-0.178 0.051-0.569 0.203-1.218 0.141-4.37-0.372C24.194 21.16 22.735 21 21.121 21c-1.61 0-3.069 0.158-5.231 0.504-2.099 0.334-3.139 0.479-3.775 0.479-0.344 0-0.57-0.043-0.78-0.12zm-2.311 7.221c-0.122-0.908 0.236-1.599 0.62-1.693l0.078-0.011c0.814-0.141 1.42-0.916 1.432-1.837 0.006-0.46 0.029-0.914 0.069-1.36 0.936-0.011 2.255-0.22 4.675-0.634 2.22-0.38 3.678-0.549 5.235-0.549 1.559 0 3.012 0.171 5.18 0.549 2.307 0.403 3.57 0.611 4.458 0.636 0.033 0.383 0.055 0.773 0.065 1.168 0.022 0.903 0.614 1.661 1.41 1.81l0.083 0.011c0.4 0.082 0.77 0.783 0.647 1.699-0.118 0.878-0.617 2.417-1.012 2.415l-0.11-0.031c-0.814-0.207-1.641 0.282-1.946 1.15C28.278 37.033 24.81 39 20.997 39c-3.766 0-7.197-1.89-8.853-6.425-0.323-0.884-1.186-1.36-2.011-1.107-0.038 0.012-0.068 0.022-0.103 0.035h-0.004c-0.384 0-0.883-1.535-1.002-2.419zm14.977-1.346C23.987 27.88 24.104 28 24.241 28h2.519c0.136 0 0.253-0.12 0.239-0.262C26.902 26.757 26.268 26 25.5 26c-0.768 0-1.402 0.757-1.499 1.738zm-9 0C14.988 27.88 15.104 28 15.241 28h2.519c0.137 0 0.253-0.12 0.239-0.262C17.901 26.757 17.267 26 16.5 26c-0.768 0-1.402 0.757-1.499 1.738zm2.29 4.575c-0.4 0.406-0.385 1.05 0.029 1.44 0.202 0.189 0.541 0.431 1.02 0.66C19.104 34.781 20.003 35 21.023 35c1.013 0 1.897-0.204 2.645-0.548 0.472-0.218 0.806-0.448 1.005-0.631 0.418-0.385 0.438-1.03 0.044-1.439-0.395-0.41-1.054-0.429-1.473-0.043 0.001-0.003-0.003 0.001-0.015 0.011l-0.056 0.039c-0.104 0.072-0.236 0.148-0.394 0.221-0.476 0.219-1.058 0.353-1.756 0.353-0.689 0-1.275-0.142-1.763-0.377-0.274-0.131-0.441-0.251-0.496-0.302C18.562 32.094 18.302 32 18.042 32c-0.274 0-0.547 0.105-0.751 0.313zM1 66.469C1 67.314 1.698 68 2.56 68h28.559C31.963 67.998 33 67.955 33 67.002c0-0.907-0.941-0.997-1.759-1.006L3.003 65.995l-0.01-0.324C2.742 54.995 11.803 45 23.002 45c0.937 0 2.049 0.006 3.064 0.15 0.852 0.122 2.192 0.458 2.466-0.327 0.273-0.787-0.6-1.446-1.453-1.567C25.921 43.092 24.704 43 23.613 43 9.941 43 1 53.209 1 66.469z"/></clipPath><clipPath id="clip_path_1"><path d="M48.788 30.131L31.94 37.062l-0.009 0.004c-0.052 0.024-0.298 0.141-0.509 0.347-0.392 0.329-0.42 0.965-0.422 1.052v17.601c0 0.33 0.102 0.61 0.307 0.84 0.007 0.008 0.013 0.016 0.026 0.029l0.073 0.074 0.008 0.005c0.042 0.038 0.088 0.074 0.136 0.109l17.19 7.307c0.459 0.233 1.028-0.009 1.028-0.009l1.813-0.838 0.009-0.003c0.1-0.045 1.042-0.5 0.672-1.372L52.2 62.08c-0.37-0.67-1.047-0.459-1.193-0.404l-0.028 0.012-0.98 0.438V45.777l5.839-2.601 0.008 2.342v0.01c0.003 0.118 0.052 1.238 1 1.238 1 0 1-1.248 1-1.248l-0.01-2.897V42.61c0-0.034-0.005-0.154-0.035-0.307l6.085-2.709 0.007 4.249v0.011c0.003 0.118 0.052 1.237 1 1.237 1 0 1-1.248 1-1.248l-0.009-5.705v-0.01c-0.002-0.061-0.016-0.38-0.152-0.681-0.004-0.009-0.009-0.017-0.011-0.024-0.068-0.142-0.163-0.277-0.299-0.377-0.213-0.188-0.434-0.286-0.434-0.286l-14.845-6.607-0.01-0.005c-0.038-0.016-0.186-0.074-0.378-0.111C49.654 30.01 49.55 30 49.45 30c-0.353 0-0.662 0.131-0.662 0.131zm-5.421 4.393l6.068-2.497 13.292 5.915-5.883 2.61-13.477-6.028zm-8.839 3.636l6.289-2.587 13.566 6.071-5.395 2.393-14.46-5.877zm-1.529 17.439V39.661l15 6.028v16.552c-8.123-3.604-13.122-5.818-15-6.642zM53 59c0 7.18 5.82 13 13 13s13-5.82 13-13-5.82-13-13-13-13 5.82-13 13zm2 0c0-6.076 4.925-11 11-11 6.076 0 11 4.924 11 11 0 6.075-4.924 11-11 11-6.075 0-11-4.925-11-11zm9.984-6.471l-2.9 3.004-0.082 0.098c-0.121 0.172-0.172 0.38-0.153 0.59-0.024 0.255 0.052 0.509 0.235 0.698l2.9 3.003c0.35 0.363 0.955 0.346 1.353-0.038 0.397-0.384 0.436-0.988 0.085-1.352l-1.283-1.328 3.877 0.027h0.222c1.178 0.004 2.801 0.118 2.801 2.466 0 2.349-1.623 2.491-2.801 2.5h-0.222l-8.224 0.001C60.046 62.206 59 62.288 59 63.194c0 0.997 1.266 1.003 2.006 1.003h8.328c2.529-0.006 4.693-0.179 4.693-4.5 0-0.59-0.042-1.103-0.118-1.55l-0.045-0.232c-0.543-2.566-2.388-2.709-4.486-2.717l-4.192-0.001 1.236-1.278 0.075-0.088c0.268-0.367 0.207-0.909-0.16-1.264-0.206-0.198-0.468-0.299-0.722-0.299-0.235 0-0.463 0.087-0.631 0.261z"/></clipPath></defs><g id="g_0"><path fill="#4195b9ff" d="M-4 73h44V3H-4z" fill-rule="evenodd" clip-path="url(#clip_path_0)"/></g><g id="g_1"><path fill="#66a367ff" d="M26 77h58V25H26z" fill-rule="evenodd" clip-path="url(#clip_path_1)"/></g><path fill="#66a267ff" d="M16.02 15.332h2.173v-2H16.02zm3.908 0H22.1v-2h-2.172zm3.908 0h2.172v-2h-2.172z" fill-rule="evenodd" id="path_0"/></svg>