<svg id="vector" xmlns="http://www.w3.org/2000/svg" width="80.0d" height="80.0d" viewBox="0 0 80.0 80.0"><defs><clipPath id="clip_path_0"><path d="M25 10.003v11.492L5.303 8.89C3.244 7.41 1 7.582 1 10.108V70c0 3.201 1.784 4 5 4h68.005C77.221 74 79 72.197 79 68.995V27.93c0-1.544-1.072-2.796-2.331-3.699C62.435 14.988 54.631 9.875 53.258 8.89 51.198 7.412 49 7.477 49 10.003v12.55L29.389 8.89c-0.875-0.629-1.8-0.979-2.573-0.979C25.77 7.911 25 8.55 25 10.003zM51 22V10.004l25.432 16.62C76.789 26.878 77 27.287 77 27.723v41.886C77 70.931 75.924 72 74.597 72H5.402C4.076 72 3 70.931 3 69.609V10.004l21.038 13.078C25.722 24.285 27 23.054 27 21l0.142-10.996 22.006 15.038c0.332 0.239 0.606 0.344 0.831 0.344C50.89 25.386 51 23.65 51 22z"/></clipPath></defs><g id="g_0"><path fill="#4195b9ff" d="M-4 79h88V2.911H-4z" fill-rule="evenodd" clip-path="url(#clip_path_0)"/></g><path fill="#66a267ff" d="M18.44 53.809h8.959V44.85H18.44zm17.08 0h8.959V44.85H35.52zm17.081 0h8.959V44.85h-8.959z" fill-rule="evenodd" id="path_0"/></svg>