<svg id="vector" xmlns="http://www.w3.org/2000/svg" width="87.0d" height="81.0d" viewBox="0 0 87.0 81.0"><defs><clipPath id="clip_path_0"><path d="M52.179 34.083l-16.847 6.93-0.01 0.004c-0.052 0.023-0.297 0.14-0.509 0.347-0.392 0.329-0.419 0.964-0.421 1.053l-0.001 17.6c0 0.329 0.103 0.609 0.307 0.84 0.006 0.008 0.013 0.016 0.026 0.028l0.074 0.074 0.007 0.006c0.042 0.037 0.087 0.074 0.137 0.109l17.189 7.307c0.458 0.233 1.03-0.009 1.03-0.009l1.812-0.837 0.007-0.004c0.101-0.046 1.043-0.5 0.674-1.372l-0.064-0.128c-0.369-0.67-1.046-0.459-1.192-0.404l-0.028 0.011-0.979 0.439v-16.35l5.838-2.599 0.008 2.342v0.009c0.002 0.119 0.053 1.237 1 1.237 1 0 1-1.246 1-1.246l-0.01-2.898v-0.011c-0.001-0.034-0.005-0.154-0.035-0.307l6.085-2.71 0.007 4.251v0.011c0.003 0.117 0.053 1.235 1 1.235 1 0 1-1.246 1-1.246l-0.009-5.705-0.001-0.01c-0.001-0.062-0.014-0.381-0.151-0.682l-0.011-0.024c-0.067-0.142-0.163-0.277-0.299-0.378-0.212-0.188-0.433-0.285-0.433-0.285l-14.846-6.608-0.01-0.003c-0.038-0.017-0.185-0.075-0.379-0.112-0.1-0.027-0.203-0.037-0.303-0.037-0.353 0-0.663 0.132-0.663 0.132zm-5.42 4.392l6.068-2.497 13.292 5.916-5.884 2.609-13.476-6.028zm-8.841 3.636l6.289-2.587 13.568 6.071-5.396 2.393c-7.064-2.872-11.884-4.831-14.461-5.877zm-1.527 17.44L36.39 43.612l15 6.028-0.001 16.552c-8.121-3.605-13.122-5.819-14.998-6.641zm20 3.4c0 7.179 5.821 13 12.999 13 7.181 0 13.002-5.821 13.002-13 0-7.18-5.821-13.001-13.002-13.001-7.178 0-12.999 5.821-12.999 13.001zm2 0c0-6.075 4.925-11 10.999-11 6.077 0 11.002 4.925 11.002 11s-4.925 11-11.002 11c-6.074 0-10.999-4.925-10.999-11zm9.984-6.47l-2.901 3.003-0.081 0.097c-0.12 0.172-0.172 0.382-0.153 0.591-0.024 0.254 0.053 0.509 0.234 0.698l2.901 3.003c0.349 0.362 0.956 0.345 1.354-0.038 0.397-0.385 0.435-0.988 0.084-1.351l-1.281-1.328 3.875 0.026h0.222c1.178 0.004 2.802 0.118 2.802 2.466 0 2.349-1.624 2.492-2.802 2.5h-0.222l-8.223 0.001c-0.746 0.008-1.792 0.09-1.792 0.996 0 0.996 1.265 1.003 2.006 1.003h8.328c2.528-0.007 4.692-0.179 4.692-4.5 0-0.591-0.041-1.104-0.119-1.549l-0.043-0.233c-0.544-2.566-2.388-2.709-4.486-2.717l-4.192-0.001 1.235-1.278 0.075-0.088c0.267-0.366 0.207-0.91-0.159-1.262-0.207-0.2-0.469-0.3-0.723-0.3-0.235 0-0.463 0.086-0.631 0.261z"/></clipPath><clipPath id="clip_path_1"><path d="M52.179 34.083l-16.847 6.93-0.01 0.004c-0.052 0.023-0.297 0.14-0.509 0.347-0.392 0.329-0.419 0.964-0.421 1.053l-0.001 17.6c0 0.329 0.103 0.609 0.307 0.84 0.006 0.008 0.013 0.016 0.026 0.028l0.074 0.074 0.007 0.006c0.042 0.037 0.087 0.074 0.137 0.109l17.189 7.307c0.458 0.233 1.03-0.009 1.03-0.009l1.812-0.837 0.007-0.004c0.101-0.046 1.043-0.5 0.674-1.372l-0.064-0.128c-0.369-0.67-1.046-0.459-1.192-0.404l-0.028 0.011-0.979 0.439v-16.35l5.838-2.599 0.008 2.342v0.009c0.002 0.119 0.053 1.237 1 1.237 1 0 1-1.246 1-1.246l-0.01-2.898v-0.011c-0.001-0.034-0.005-0.154-0.035-0.307l6.085-2.71 0.007 4.251v0.011c0.003 0.117 0.053 1.235 1 1.235 1 0 1-1.246 1-1.246l-0.009-5.705-0.001-0.01c-0.001-0.062-0.014-0.381-0.151-0.682l-0.011-0.024c-0.067-0.142-0.163-0.277-0.299-0.378-0.212-0.188-0.433-0.285-0.433-0.285l-14.846-6.608-0.01-0.003c-0.038-0.017-0.185-0.075-0.379-0.112-0.1-0.027-0.203-0.037-0.303-0.037-0.353 0-0.663 0.132-0.663 0.132zm-5.42 4.392l6.068-2.497 13.292 5.916-5.884 2.609-13.476-6.028zm-8.841 3.636l6.289-2.587 13.568 6.071-5.396 2.393c-7.064-2.872-11.884-4.831-14.461-5.877zm-1.527 17.44L36.39 43.612l15 6.028-0.001 16.552c-8.121-3.605-13.122-5.819-14.998-6.641zm20 3.4c0 7.179 5.821 13 12.999 13 7.181 0 13.002-5.821 13.002-13 0-7.18-5.821-13.001-13.002-13.001-7.178 0-12.999 5.821-12.999 13.001zm2 0c0-6.075 4.925-11 10.999-11 6.077 0 11.002 4.925 11.002 11s-4.925 11-11.002 11c-6.074 0-10.999-4.925-10.999-11zm9.984-6.47l-2.901 3.003-0.081 0.097c-0.12 0.172-0.172 0.382-0.153 0.591-0.024 0.254 0.053 0.509 0.234 0.698l2.901 3.003c0.349 0.362 0.956 0.345 1.354-0.038 0.397-0.385 0.435-0.988 0.084-1.351l-1.281-1.328 3.875 0.026h0.222c1.178 0.004 2.802 0.118 2.802 2.466 0 2.349-1.624 2.492-2.802 2.5h-0.222l-8.223 0.001c-0.746 0.008-1.792 0.09-1.792 0.996 0 0.996 1.265 1.003 2.006 1.003h8.328c2.528-0.007 4.692-0.179 4.692-4.5 0-0.591-0.041-1.104-0.119-1.549l-0.043-0.233c-0.544-2.566-2.388-2.709-4.486-2.717l-4.192-0.001 1.235-1.278 0.075-0.088c0.267-0.366 0.207-0.91-0.159-1.262-0.207-0.2-0.469-0.3-0.723-0.3-0.235 0-0.463 0.086-0.631 0.261z"/></clipPath></defs><path fill="#4194b8ff" d="M30.36 7.945c-6.51 0-12.77 2.52-17.61 7.1-4.95 4.69-7.75 11.02-7.89 17.81-0.14 6.77 2.38 13.24 7.07 18.18l16.09 18.1c0.55 0.92 1.54 0.92 2.09 0.92 0.71 0 1.49-0.32 2-0.83l1.812-1.983c0.445-0.487 0.304-1.263-0.284-1.563-0.4-0.203-0.886-0.116-1.19 0.215l-1.787 1.95c-0.08 0.07-0.33 0.21-0.55 0.21-0.13 0-0.3 0-0.4-0.01L13.4 49.675c-4.34-4.58-6.67-10.54-6.54-16.78 0.13-6.25 2.71-12.08 7.26-16.4 4.41-4.16 10.33-6.55 16.24-6.55 11.253 0 20.852 8.066 22.809 18.934 0.088 0.485 0.497 0.843 0.989 0.843 0.62 0 1.11-0.556 1-1.168C53.039 16.721 42.59 7.945 30.36 7.945" fill-rule="evenodd" id="path_0"/><path fill="none" d="M36.57 30.067c0 3.621-2.934 6.556-6.555 6.556-3.62 0-6.555-2.935-6.555-6.556 0-3.62 2.935-6.556 6.555-6.556 3.62 0 6.556 2.935 6.556 6.556z" stroke="#66a267ff" stroke-width="2.0" fill-rule="evenodd" id="path_1"/><g id="g_0"><path fill="#66a367ff" d="M29.391 80.951h58v-52h-58z" fill-rule="evenodd" clip-path="url(#clip_path_0)"/></g><g id="g_1"><path fill="#4194b8ff" d="M34.994 28.951l42.221 8.546-5.732 11.639-7.434 0.815-8.12 5.837v14.267l-24.554-7.104z" fill-rule="evenodd" clip-path="url(#clip_path_1)"/></g></svg>