<svg id="vector" xmlns="http://www.w3.org/2000/svg" width="80.0d" height="80.0d" viewBox="0 0 80.0 80.0"><defs><clipPath id="clip_path_0"><path d="M9.865 9C9.668 9 9.592 9.002 9.351 9.009 7.436 9.068 6 9.525 6 13c0 2.996 0.928 3.748 2.379 3.936L4.29 30.896l-0.064 0.233c-0.941 3.657 1.14 7.452 4.768 8.552 0.123 0.038 0.244 0.071 0.365 0.101 0.161 0.04 0.323 0.074 0.485 0.102l0.157 0.027L10 67l0.004 0.235C10.096 70.146 11.939 71 15.002 71l9.792 0.001c0.064 0.02 0.133 0.029 0.206 0.029 0.073 0 0.142-0.009 0.206-0.029l40.09-0.002c0.843-0.008 1.747-0.093 1.747-1.004l-0.007-0.13c-0.087-0.829-1.031-0.868-1.866-0.87L26 68.994V39.998l-0.001-0.037c2.907-0.288 5.394-2.168 6.474-4.821 1.158 2.825 4.305 4.86 8.026 4.86 3.723 0 6.87-2.035 8.027-4.86 1.252 3.073 4.394 5.111 7.885 4.835 0.14-0.011 0.27-0.026 0.394-0.044 2.871-0.389 5.102-2.415 5.888-4.995 0.884 2.46 2.916 4.227 5.308 4.834L68 61.772c0.003 0.682-0.084 1.217 0.865 1.217 1 0 1-0.596 1-1.333L70 39.999c0.543-0.012 1.092-0.083 1.64-0.217 0.122-0.03 0.242-0.063 0.366-0.101 3.706-1.123 5.797-5.058 4.704-8.785l-4.089-13.959C74.073 16.748 75 15.997 75 13c0-4-1.652-4-3.997-4H9.865zM8 13c0-2 1.477-2 2.046-2h60.971C71.623 11.003 73 11.069 73 13c0 1.863-1.281 1.99-1.916 1.999H9.916C9.281 14.99 8 14.863 8 13zm56.303 21.286l-5.111-16.322C59.087 17.646 59.023 17.324 59 17h11.603l4.282 14.475c0.779 2.35-0.793 5.639-3.356 6.327-0.088 0.023-0.167 0.043-0.243 0.058-0.419 0.091-0.846 0.135-1.272 0.135-2.497 0-4.977-1.492-5.711-3.709zm-14.717-0.809l-2.072-16.166c-0.017-0.104-0.029-0.207-0.037-0.311h9.534l4.43 14.97c0.388 2.475-2.372 5.658-5.18 5.988-0.085 0.01-0.18 0.019-0.275 0.026-0.158 0.01-0.314 0.016-0.47 0.016-2.955 0-5.518-1.903-5.93-4.523zm-16.084-0.479L35 17.44l0.007-0.221L35.026 17h10.949C45.991 17.146 46 17.293 46 17.44l1.5 15.558-0.006 0.174C47.32 35.678 43.452 38 40.499 38c-3.021 0-6.997-2.431-6.997-5.002zM33.523 17c-0.008 0.104-0.02 0.207-0.036 0.311l-2.073 16.166-0.038 0.211c-0.54 2.646-3.294 4.505-6.362 4.296-0.095-0.007-0.189-0.016-0.274-0.026-2.809-0.33-5.57-3.513-5.18-5.988L23.989 17h9.534zM22 17c-0.023 0.324-0.087 0.646-0.193 0.964l-5.11 16.322-0.073 0.202c-0.958 2.475-4.115 3.978-6.911 3.372-0.076-0.015-0.154-0.035-0.242-0.058-2.563-0.688-4.136-3.977-3.356-6.327L10.397 17H22zm-7.16 51.992C13.535 68.939 12 68.266 12 67l0.001-27.047 0.227-0.03c2.713-0.391 5.088-2.256 6.071-4.963l0.007-0.023c0.769 2.52 2.918 4.513 5.696 4.965v0.096l-0.001 28.996-8.999 0.001-0.162-0.003z"/></clipPath></defs><g id="g_0"><path fill="#4195b9ff" d="M-1 76.03h83V4H-1z" fill-rule="evenodd" clip-path="url(#clip_path_0)"/></g><path fill="#4195b9ff" d="M21 55.832c-0.552 0-1-0.448-1-1v-1.576c0-0.552 0.448-1 1-1s1 0.448 1 1v1.576c0 0.552-0.448 1-1 1" fill-rule="evenodd" id="path_0"/><path fill="#66a267ff" d="M16.324 46.941c-1.522 0.508-2.029-0.507-1.184-2.198l-0.845 0.17c-1.184 2.535-0.339 4.057 1.86 3.381 2.2-0.677 4.905-3.214 6.088-5.92l-2.029 0.508c-0.677 1.861-2.368 3.721-3.89 4.06" fill-rule="evenodd" id="path_1"/><path fill="#66a267ff" d="M16.155 45.758c0.676-0.17 1.691-1.015 2.03-2.03l-2.707 0.846c-0.338 0.846-0.169 1.354 0.677 1.184" fill-rule="evenodd" id="path_2"/></svg>