<svg id="vector" xmlns="http://www.w3.org/2000/svg" width="24.0d" height="24.0d" viewBox="0 0 24.0 24.0"><path fill="#5a5a5fff" d="M5 13.5c0.276 0 0.5 0.224 0.5 0.5 0 0.245-0.177 0.45-0.41 0.492L5 14.5H3.662l0.404 1.412c0.171 0.598 0.69 1.024 1.3 1.081L5.51 17h1.04c0.232-1.141 1.24-2 2.45-2 1.38 0 2.5 1.12 2.5 2.5S10.38 20 9 20c-1.21 0-2.219-0.86-2.45-2H5.509c-1.058 0-1.994-0.664-2.35-1.647l-0.054-0.166L2.623 14.5H1.5C1.224 14.5 1 14.276 1 14c0-0.245 0.177-0.45 0.41-0.492L1.5 13.5H5zM18 16c-0.828 0-1.5 0.672-1.5 1.5S17.172 19 18 19s1.5-0.672 1.5-1.5S18.828 16 18 16zm-9 0c-0.828 0-1.5 0.672-1.5 1.5S8.172 19 9 19s1.5-0.672 1.5-1.5S9.828 16 9 16zm-2.5-5C6.776 11 7 11.224 7 11.5c0 0.245-0.177 0.45-0.41 0.492L6.5 12h-6C0.224 12 0 11.776 0 11.5c0-0.245 0.177-0.45 0.41-0.492L0.5 11h6zm16.996 1.235L23.5 12.5v3c0 1.325-1.032 2.41-2.336 2.495L21 18h-0.55c-0.232 1.141-1.24 2-2.45 2-1.21 0-2.218-0.859-2.45-2h-2.548c-0.276 0-0.5-0.224-0.5-0.5 0-0.245 0.177-0.45 0.41-0.492L13.002 17h2.548c0.231-1.14 1.24-2 2.45-2 1.21 0 2.219 0.86 2.45 2H21c0.78 0 1.42-0.595 1.493-1.356L22.5 15.5v-3c0-0.339-0.021-0.672-0.062-1H16c-1.325 0-2.41-1.032-2.495-2.336L13.5 9l-0.001-4.5H5C4.724 4.5 4.5 4.276 4.5 4c0-0.245 0.177-0.45 0.41-0.492L5 3.5h9.5c0.182 0 0.362 0.005 0.54 0.016l0.052 0.003 0.212 0.016 0.056 0.006c1.485 0.14 2.865 0.642 4.051 1.416l0.092 0.061 0.088 0.06 0.112 0.078c0.03 0.02 0.058 0.04 0.087 0.062l0.119 0.088c0.113 0.085 0.224 0.173 0.333 0.263l0.06 0.05c0.14 0.12 0.278 0.243 0.412 0.37 0.815 0.777 1.486 1.707 1.965 2.749l0.029 0.065c0.16 0.355 0.299 0.723 0.413 1.103l0.047 0.164 0.002 0.009 0.009 0.029-0.01-0.038 0.033 0.124c0.018 0.067 0.034 0.134 0.05 0.201l0.025 0.104 0.041 0.194 0.001 0.008 0.001 0.003 0.022 0.117-0.021-0.109 0.063 0.34c0.063 0.386 0.1 0.781 0.112 1.183zM9 8.5c0.276 0 0.5 0.224 0.5 0.5 0 0.245-0.177 0.45-0.41 0.492L9 9.5H3C2.724 9.5 2.5 9.276 2.5 9c0-0.245 0.177-0.45 0.41-0.492L3 8.5h6zM7 6c0.276 0 0.5 0.224 0.5 0.5 0 0.245-0.177 0.45-0.41 0.492L7 7H1C0.724 7 0.5 6.776 0.5 6.5c0-0.245 0.177-0.45 0.41-0.492L1 6h6zm8.776-1.399l-0.148-0.022-0.046-0.006-0.075-0.01-0.192-0.022-0.057-0.006-0.037-0.003 0.026 0.002 0.011 0.001 0.035 0.004-0.046-0.005-0.028-0.002-0.026-0.002-0.023-0.003 0.049 0.005-0.15-0.012 0.034 0.002c0.064 0.005 0.127 0.01 0.19 0.017L15.17 4.527l-0.067-0.005-0.088-0.006-0.256-0.012-0.124-0.002L14.5 4.5h-0.001L14.5 9c0 0.78 0.595 1.42 1.356 1.493L16 10.5h6.247l-0.027-0.104c-0.066-0.245-0.144-0.484-0.232-0.719-0.364-0.963-0.907-1.838-1.59-2.583l-0.122-0.13-0.104-0.106-0.09-0.09-0.069-0.066 0.066 0.065-0.066-0.064c-0.03-0.03-0.061-0.058-0.092-0.086-0.119-0.11-0.24-0.216-0.366-0.318l-0.2-0.158c-0.876-0.669-1.892-1.16-2.993-1.422L16.3 4.703l-0.034-0.007 0.012 0.002-0.029-0.006-0.011-0.002-0.028-0.007 0.031 0.007 0.008 0.002 0.017 0.004-0.025-0.006-0.129-0.027-0.121-0.024 0.072 0.014c-0.089-0.018-0.178-0.034-0.268-0.049l0.062 0.011-0.081-0.014z" fill-rule="evenodd" id="path_0"/></svg>