<svg id="vector" xmlns="http://www.w3.org/2000/svg" width="24.0d" height="24.0d" viewBox="0 0 24.0 24.0"><path fill="#4195b9ff" d="M6 2C6.28 2 6.5 2.22 6.5 2.5 6.5 2.75 6.32 2.95 6.09 2.99L6 3H2.5V6.5C2.5 6.75 2.32 6.95 2.09 6.99L2 7C1.75 7 1.55 6.82 1.51 6.59L1.5 6.5V2.5C1.5 2.25 1.68 2.05 1.91 2.01L2 2H6ZM6 22C6.28 22 6.5 21.78 6.5 21.5 6.5 21.25 6.32 21.05 6.09 21.01L6 21H2.5V17.5C2.5 17.25 2.32 17.05 2.09 17.01L2 17C1.75 17 1.55 17.18 1.51 17.41L1.5 17.5V21.5C1.5 21.75 1.68 21.95 1.91 21.99L2 22H6ZM18 2C17.72 2 17.5 2.22 17.5 2.5 17.5 2.75 17.68 2.95 17.91 2.99L18 3H21.5V6.5C21.5 6.75 21.68 6.95 21.91 6.99L22 7C22.25 7 22.45 6.82 22.49 6.59L22.5 6.5V2.5C22.5 2.25 22.32 2.05 22.09 2.01L22 2H18ZM18 22C17.72 22 17.5 21.78 17.5 21.5 17.5 21.25 17.68 21.05 17.91 21.01L18 21H21.5V17.5C21.5 17.25 21.68 17.05 21.91 17.01L22 17C22.25 17 22.45 17.18 22.49 17.41L22.5 17.5V21.5C22.5 21.75 22.32 21.95 22.09 21.99L22 22H18Z" fill-rule="evenodd" id="path_0"/><path fill="#699c69ff" d="M6 7.5C6.28 7.5 6.5 7.72 6.5 8V16C6.5 16.28 6.28 16.5 6 16.5 5.72 16.5 5.5 16.28 5.5 16V8C5.5 7.72 5.72 7.5 6 7.5ZM10 7.5C10.28 7.5 10.5 7.72 10.5 8V16C10.5 16.28 10.28 16.5 10 16.5 9.72 16.5 9.5 16.28 9.5 16V8C9.5 7.72 9.72 7.5 10 7.5ZM14 7.5C14.28 7.5 14.5 7.72 14.5 8V16C14.5 16.28 14.28 16.5 14 16.5 13.72 16.5 13.5 16.28 13.5 16V8C13.5 7.72 13.72 7.5 14 7.5ZM18 7.5C18.28 7.5 18.5 7.72 18.5 8V16C18.5 16.28 18.28 16.5 18 16.5 17.72 16.5 17.5 16.28 17.5 16V8C17.5 7.72 17.72 7.5 18 7.5Z" fill-rule="evenodd" id="path_1"/></svg>